M48
; DRILL file {KiCad (5.1.8-0-10_14)} date Wednesday, December 16, 2020 at 08:41:29 PM
; FORMAT={-:-/ absolute / inch / decimal}
; #@! TF.CreationDate,2020-12-16T20:41:29-08:00
; #@! TF.GenerationSoftware,Kicad,Pcbnew,(5.1.8-0-10_14)
; #@! TF.FileFunction,Plated,1,4,PTH
FMAT,2
INCH
T1C0.0157
T2C0.0276
T3C0.0315
T4C0.0394
T5C0.1260
%
G90
G05
T1
X4.125Y-4.475
X4.275Y-4.35
X5.45Y-6.2286
X5.95Y-3.65
X6.325Y-4.25
X6.375Y-5.425
X6.95Y-4.925
X7.175Y-4.6
X7.45Y-2.9
X7.45Y-3.95
X8.55Y-4.275
X8.65Y-4.5
X8.85Y-4.975
T2
X8.145Y-5.04
X8.445Y-5.04
X8.145Y-4.92
X8.445Y-4.92
X8.145Y-4.68
X8.445Y-4.68
X8.145Y-4.55
X8.445Y-4.55
X8.145Y-4.79
X8.445Y-4.79
X8.145Y-4.42
X8.445Y-4.42
T3
X3.85Y-5.375
X3.9484Y-5.375
X8.05Y-3.7
X8.05Y-3.7984
X5.3Y-3.75
X5.3Y-3.85
X5.3Y-3.95
X5.3Y-4.05
X5.3Y-4.15
X5.3Y-4.25
X5.3Y-4.35
X5.6Y-3.75
X5.6Y-3.85
X5.6Y-3.95
X5.6Y-4.05
X5.6Y-4.15
X5.6Y-4.25
X5.6Y-4.35
X5.3Y-5.525
X5.3Y-5.625
X5.3Y-5.725
X5.3Y-5.825
X5.3Y-5.925
X5.3Y-6.025
X5.3Y-6.125
X5.6Y-5.525
X5.6Y-5.625
X5.6Y-5.725
X5.6Y-5.825
X5.6Y-5.925
X5.6Y-6.025
X5.6Y-6.125
X4.6Y-5.525
X4.6Y-5.625
X4.6Y-5.725
X4.6Y-5.825
X4.6Y-5.925
X4.6Y-6.025
X4.6Y-6.125
X4.9Y-5.525
X4.9Y-5.625
X4.9Y-5.725
X4.9Y-5.825
X4.9Y-5.925
X4.9Y-6.025
X4.9Y-6.125
X7.3Y-5.4266
X7.3Y-5.525
X5.0516Y-5.25
X5.15Y-5.25
X7.65Y-5.525
X7.65Y-5.625
X7.65Y-5.725
X7.65Y-5.825
X7.65Y-5.925
X7.65Y-6.025
X7.65Y-6.125
X7.95Y-5.525
X7.95Y-5.625
X7.95Y-5.725
X7.95Y-5.825
X7.95Y-5.925
X7.95Y-6.025
X7.95Y-6.125
X6.2Y-4.55
X6.2Y-4.65
X6.2Y-4.75
X6.2Y-4.85
X6.2Y-4.95
X6.2Y-5.05
X6.2Y-5.15
X6.2Y-5.25
X6.5Y-4.55
X6.5Y-4.65
X6.5Y-4.75
X6.5Y-4.85
X6.5Y-4.95
X6.5Y-5.05
X6.5Y-5.15
X6.5Y-5.25
X8.825Y-3.6
X8.9234Y-3.6
X8.11Y-6.125
X8.11Y-6.2234
X6.75Y-3.75
X6.8484Y-3.75
X8.05Y-2.75
X8.1484Y-2.75
X5.75Y-5.525
X5.8484Y-5.525
X6.2Y-5.525
X6.2Y-5.625
X6.2Y-5.725
X6.2Y-5.825
X6.2Y-5.925
X6.2Y-6.025
X6.2Y-6.125
X6.5Y-5.525
X6.5Y-5.625
X6.5Y-5.725
X6.5Y-5.825
X6.5Y-5.925
X6.5Y-6.025
X6.5Y-6.125
X8.4Y-2.75
X8.4Y-2.85
X8.4Y-2.95
X8.4Y-3.05
X8.4Y-3.15
X8.4Y-3.25
X8.4Y-3.35
X8.7Y-2.75
X8.7Y-2.85
X8.7Y-2.95
X8.7Y-3.05
X8.7Y-3.15
X8.7Y-3.25
X8.7Y-3.35
X8.85Y-2.75
X8.9484Y-2.75
X6.2Y-3.75
X6.2Y-3.85
X6.2Y-3.95
X6.2Y-4.05
X6.2Y-4.15
X6.2Y-4.25
X6.2Y-4.35
X6.5Y-3.75
X6.5Y-3.85
X6.5Y-3.95
X6.5Y-4.05
X6.5Y-4.15
X6.5Y-4.25
X6.5Y-4.35
X3.85Y-5.525
X3.85Y-5.625
X3.85Y-5.725
X3.85Y-5.825
X3.85Y-5.925
X3.85Y-6.025
X3.85Y-6.125
X3.85Y-6.225
X4.15Y-5.525
X4.15Y-5.625
X4.15Y-5.725
X4.15Y-5.825
X4.15Y-5.925
X4.15Y-6.025
X4.15Y-6.125
X4.15Y-6.225
X5.05Y-3.6516
X5.05Y-3.75
X4.3Y-3.6516
X4.3Y-3.75
X5.3Y-4.65
X5.3Y-4.75
X5.3Y-4.85
X5.3Y-4.95
X5.3Y-5.05
X5.3Y-5.15
X5.3Y-5.25
X5.6Y-4.65
X5.6Y-4.75
X5.6Y-4.85
X5.6Y-4.95
X5.6Y-5.05
X5.6Y-5.15
X5.6Y-5.25
X4.3516Y-5.25
X4.45Y-5.25
X5.05Y-2.75
X5.1484Y-2.75
X7.5Y-6.125
X7.5Y-6.2234
X5.75Y-3.6516
X5.75Y-3.75
X4.3Y-5.525
X4.3984Y-5.525
X7.3Y-3.7
X7.3Y-3.8
X7.3Y-3.9
X7.3Y-4.0
X7.3Y-4.1
X7.3Y-4.2
X7.3Y-4.3
X7.3Y-4.4
X7.3Y-4.5
X7.3Y-4.6
X7.3Y-4.7
X7.3Y-4.8
X7.3Y-4.9
X7.3Y-5.0
X7.9Y-3.7
X7.9Y-3.8
X7.9Y-3.9
X7.9Y-4.0
X7.9Y-4.1
X7.9Y-4.2
X7.9Y-4.3
X7.9Y-4.4
X7.9Y-4.5
X7.9Y-4.6
X7.9Y-4.7
X7.9Y-4.8
X7.9Y-4.9
X7.9Y-5.0
X5.05Y-5.525
X5.1484Y-5.525
X6.725Y-4.55
X6.8234Y-4.55
X4.05Y-2.85
X4.05Y-3.45
X4.35Y-2.85
X4.35Y-3.45
X6.65Y-5.4266
X6.65Y-5.525
X8.4Y-3.6
X8.4Y-3.7
X8.4Y-3.8
X8.4Y-3.9
X8.4Y-4.0
X8.4Y-4.1
X8.4Y-4.2
X8.7Y-3.6
X8.7Y-3.7
X8.7Y-3.8
X8.7Y-3.9
X8.7Y-4.0
X8.7Y-4.1
X8.7Y-4.2
X5.3Y-2.75
X5.3Y-2.85
X5.3Y-2.95
X5.3Y-3.05
X5.3Y-3.15
X5.3Y-3.25
X5.3Y-3.35
X5.3Y-3.45
X5.6Y-2.75
X5.6Y-2.85
X5.6Y-2.95
X5.6Y-3.05
X5.6Y-3.15
X5.6Y-3.25
X5.6Y-3.35
X5.6Y-3.45
X3.85Y-4.65
X3.85Y-4.75
X3.85Y-4.85
X3.85Y-4.95
X3.85Y-5.05
X3.85Y-5.15
X3.85Y-5.25
X4.15Y-4.65
X4.15Y-4.75
X4.15Y-4.85
X4.15Y-4.95
X4.15Y-5.05
X4.15Y-5.15
X4.15Y-5.25
X4.6Y-2.75
X4.6Y-2.85
X4.6Y-2.95
X4.6Y-3.05
X4.6Y-3.15
X4.6Y-3.25
X4.6Y-3.35
X4.6Y-3.45
X4.9Y-2.75
X4.9Y-2.85
X4.9Y-2.95
X4.9Y-3.05
X4.9Y-3.15
X4.9Y-3.25
X4.9Y-3.35
X4.9Y-3.45
X7.6Y-2.75
X7.6Y-2.85
X7.6Y-2.95
X7.6Y-3.05
X7.6Y-3.15
X7.6Y-3.25
X7.6Y-3.35
X7.6Y-3.45
X7.9Y-2.75
X7.9Y-2.85
X7.9Y-2.95
X7.9Y-3.05
X7.9Y-3.15
X7.9Y-3.25
X7.9Y-3.35
X7.9Y-3.45
X4.6Y-4.65
X4.6Y-4.75
X4.6Y-4.85
X4.6Y-4.95
X4.6Y-5.05
X4.6Y-5.15
X4.6Y-5.25
X4.9Y-4.65
X4.9Y-4.75
X4.9Y-4.85
X4.9Y-4.95
X4.9Y-5.05
X4.9Y-5.15
X4.9Y-5.25
X8.25Y-5.525
X8.25Y-5.625
X8.25Y-5.725
X8.25Y-5.825
X8.25Y-5.925
X8.25Y-6.025
X8.25Y-6.125
X8.55Y-5.525
X8.55Y-5.625
X8.55Y-5.725
X8.55Y-5.825
X8.55Y-5.925
X8.55Y-6.025
X8.55Y-6.125
X6.2Y-2.75
X6.2Y-2.85
X6.2Y-2.95
X6.2Y-3.05
X6.2Y-3.15
X6.2Y-3.25
X6.2Y-3.35
X6.2Y-3.45
X6.5Y-2.75
X6.5Y-2.85
X6.5Y-2.95
X6.5Y-3.05
X6.5Y-3.15
X6.5Y-3.25
X6.5Y-3.35
X6.5Y-3.45
X3.85Y-3.75
X3.85Y-3.85
X3.85Y-3.95
X3.85Y-4.05
X3.85Y-4.15
X3.85Y-4.25
X3.85Y-4.35
X4.15Y-3.75
X4.15Y-3.85
X4.15Y-3.95
X4.15Y-4.05
X4.15Y-4.15
X4.15Y-4.25
X4.15Y-4.35
X4.6Y-3.75
X4.6Y-3.85
X4.6Y-3.95
X4.6Y-4.05
X4.6Y-4.15
X4.6Y-4.25
X4.6Y-4.35
X4.9Y-3.75
X4.9Y-3.85
X4.9Y-3.95
X4.9Y-4.05
X4.9Y-4.15
X4.9Y-4.25
X4.9Y-4.35
X6.75Y-2.75
X6.8484Y-2.75
X5.75Y-2.75
X5.8484Y-2.75
X6.85Y-5.525
X6.85Y-5.625
X6.85Y-5.725
X6.85Y-5.825
X6.85Y-5.925
X6.85Y-6.025
X6.85Y-6.125
X7.15Y-5.525
X7.15Y-5.625
X7.15Y-5.725
X7.15Y-5.825
X7.15Y-5.925
X7.15Y-6.025
X7.15Y-6.125
T4
X8.75Y-5.1
X8.75Y-5.1902
X8.75Y-5.2803
X8.75Y-5.3705
X8.75Y-5.4606
X8.828Y-5.0549
X8.828Y-5.1451
X8.828Y-5.2352
X8.828Y-5.3254
X8.828Y-5.4156
X8.9059Y-5.1
X8.9059Y-5.1902
X8.9059Y-5.2803
X8.9059Y-5.3705
X8.9059Y-5.4606
X8.875Y-3.25
X8.875Y-3.35
T5
X8.8307Y-4.7778
X8.8307Y-5.762
T0
M30
