%TF.GenerationSoftware,KiCad,Pcbnew,(5.1.8-0-10_14)*%
%TF.CreationDate,2020-12-18T14:34:53-08:00*%
%TF.ProjectId,BEN_VGA,42454e5f-5647-4412-9e6b-696361645f70,1.0*%
%TF.SameCoordinates,Original*%
%TF.FileFunction,Copper,L4,Bot*%
%TF.FilePolarity,Positive*%
%FSLAX46Y46*%
G04 Gerber Fmt 4.6, Leading zero omitted, Abs format (unit mm)*
G04 Created by KiCad (PCBNEW (5.1.8-0-10_14)) date 2020-12-18 14:34:53*
%MOMM*%
%LPD*%
G01*
G04 APERTURE LIST*
%TA.AperFunction,ComponentPad*%
%ADD10O,2.400000X1.600000*%
%TD*%
%TA.AperFunction,ComponentPad*%
%ADD11R,2.400000X1.600000*%
%TD*%
%TA.AperFunction,ComponentPad*%
%ADD12C,1.600000*%
%TD*%
%TA.AperFunction,ComponentPad*%
%ADD13R,1.600000X1.600000*%
%TD*%
%TA.AperFunction,ComponentPad*%
%ADD14O,1.700000X1.700000*%
%TD*%
%TA.AperFunction,ComponentPad*%
%ADD15R,1.700000X1.700000*%
%TD*%
%TA.AperFunction,ComponentPad*%
%ADD16O,1.400000X1.400000*%
%TD*%
%TA.AperFunction,ComponentPad*%
%ADD17C,1.400000*%
%TD*%
%TA.AperFunction,ComponentPad*%
%ADD18C,4.000000*%
%TD*%
%TA.AperFunction,ViaPad*%
%ADD19C,0.800000*%
%TD*%
%TA.AperFunction,Conductor*%
%ADD20C,0.254000*%
%TD*%
G04 APERTURE END LIST*
D10*
%TO.P,U20,14*%
%TO.N,+5V*%
X203200000Y-92583000D03*
%TO.P,U20,7*%
%TO.N,GND*%
X195580000Y-107823000D03*
%TO.P,U20,13*%
%TO.N,Net-(U18-Pad8)*%
X203200000Y-95123000D03*
%TO.P,U20,6*%
%TO.N,Net-(U20-Pad2)*%
X195580000Y-105283000D03*
%TO.P,U20,12*%
%TO.N,Net-(U20-Pad12)*%
X203200000Y-97663000D03*
%TO.P,U20,5*%
%TO.N,Net-(U16-Pad8)*%
X195580000Y-102743000D03*
%TO.P,U20,11*%
%TO.N,VSYNC*%
X203200000Y-100203000D03*
%TO.P,U20,4*%
%TO.N,/VSync/VBLANK*%
X195580000Y-100203000D03*
%TO.P,U20,10*%
%TO.N,VSYNC*%
X203200000Y-102743000D03*
%TO.P,U20,3*%
%TO.N,/VSync/VBLANK*%
X195580000Y-97663000D03*
%TO.P,U20,9*%
%TO.N,Net-(U17-Pad8)*%
X203200000Y-105283000D03*
%TO.P,U20,2*%
%TO.N,Net-(U20-Pad2)*%
X195580000Y-95123000D03*
%TO.P,U20,8*%
%TO.N,Net-(U20-Pad12)*%
X203200000Y-107823000D03*
D11*
%TO.P,U20,1*%
%TO.N,Net-(U11-Pad1)*%
X195580000Y-92583000D03*
%TD*%
D12*
%TO.P,C22,1*%
%TO.N,+5V*%
X188976000Y-95250000D03*
%TO.P,C22,2*%
%TO.N,GND*%
X188976000Y-97750000D03*
%TD*%
D10*
%TO.P,U12,16*%
%TO.N,+5V*%
X177800000Y-69850000D03*
%TO.P,U12,8*%
%TO.N,GND*%
X170180000Y-87630000D03*
%TO.P,U12,15*%
%TO.N,Net-(U12-Pad15)*%
X177800000Y-72390000D03*
%TO.P,U12,7*%
%TO.N,+5V*%
X170180000Y-85090000D03*
%TO.P,U12,14*%
%TO.N,/VSync/Q4*%
X177800000Y-74930000D03*
%TO.P,U12,6*%
%TO.N,N/C*%
X170180000Y-82550000D03*
%TO.P,U12,13*%
%TO.N,/VSync/Q5*%
X177800000Y-77470000D03*
%TO.P,U12,5*%
%TO.N,N/C*%
X170180000Y-80010000D03*
%TO.P,U12,12*%
%TO.N,/VSync/Q6*%
X177800000Y-80010000D03*
%TO.P,U12,4*%
%TO.N,N/C*%
X170180000Y-77470000D03*
%TO.P,U12,11*%
%TO.N,/VSync/Q7*%
X177800000Y-82550000D03*
%TO.P,U12,3*%
%TO.N,N/C*%
X170180000Y-74930000D03*
%TO.P,U12,10*%
%TO.N,Net-(U11-Pad15)*%
X177800000Y-85090000D03*
%TO.P,U12,2*%
%TO.N,/HSync/264*%
X170180000Y-72390000D03*
%TO.P,U12,9*%
%TO.N,+5V*%
X177800000Y-87630000D03*
D11*
%TO.P,U12,1*%
%TO.N,Net-(U11-Pad1)*%
X170180000Y-69850000D03*
%TD*%
D10*
%TO.P,U10,14*%
%TO.N,+5V*%
X160020000Y-95250000D03*
%TO.P,U10,7*%
%TO.N,GND*%
X152400000Y-110490000D03*
%TO.P,U10,13*%
%TO.N,Net-(U10-Pad13)*%
X160020000Y-97790000D03*
%TO.P,U10,6*%
%TO.N,Net-(U10-Pad2)*%
X152400000Y-107950000D03*
%TO.P,U10,12*%
%TO.N,Net-(U10-Pad12)*%
X160020000Y-100330000D03*
%TO.P,U10,5*%
%TO.N,Net-(U10-Pad5)*%
X152400000Y-105410000D03*
%TO.P,U10,11*%
%TO.N,HSYNC*%
X160020000Y-102870000D03*
%TO.P,U10,4*%
%TO.N,/HSync/HBLANK*%
X152400000Y-102870000D03*
%TO.P,U10,10*%
%TO.N,HSYNC*%
X160020000Y-105410000D03*
%TO.P,U10,3*%
%TO.N,/HSync/HBLANK*%
X152400000Y-100330000D03*
%TO.P,U10,9*%
%TO.N,Net-(U10-Pad9)*%
X160020000Y-107950000D03*
%TO.P,U10,2*%
%TO.N,Net-(U10-Pad2)*%
X152400000Y-97790000D03*
%TO.P,U10,8*%
%TO.N,Net-(U10-Pad12)*%
X160020000Y-110490000D03*
D11*
%TO.P,U10,1*%
%TO.N,/HSync/264*%
X152400000Y-95250000D03*
%TD*%
D10*
%TO.P,U23,14*%
%TO.N,+5V*%
X195580000Y-69850000D03*
%TO.P,U23,7*%
%TO.N,GND*%
X187960000Y-85090000D03*
%TO.P,U23,13*%
%TO.N,N/C*%
X195580000Y-72390000D03*
%TO.P,U23,6*%
X187960000Y-82550000D03*
%TO.P,U23,12*%
X195580000Y-74930000D03*
%TO.P,U23,5*%
X187960000Y-80010000D03*
%TO.P,U23,11*%
X195580000Y-77470000D03*
%TO.P,U23,4*%
X187960000Y-77470000D03*
%TO.P,U23,10*%
X195580000Y-80010000D03*
%TO.P,U23,3*%
%TO.N,Net-(U22-Pad22)*%
X187960000Y-74930000D03*
%TO.P,U23,9*%
%TO.N,N/C*%
X195580000Y-82550000D03*
%TO.P,U23,2*%
%TO.N,/VSync/VBLANK*%
X187960000Y-72390000D03*
%TO.P,U23,8*%
%TO.N,N/C*%
X195580000Y-85090000D03*
D11*
%TO.P,U23,1*%
%TO.N,/HSync/HBLANK*%
X187960000Y-69850000D03*
%TD*%
D10*
%TO.P,U19,14*%
%TO.N,GND*%
X209423000Y-140335000D03*
%TO.P,U19,7*%
%TO.N,+5V*%
X201803000Y-155575000D03*
%TO.P,U19,13*%
%TO.N,N/C*%
X209423000Y-142875000D03*
%TO.P,U19,6*%
%TO.N,/VSync/Q5*%
X201803000Y-153035000D03*
%TO.P,U19,12*%
%TO.N,/VSync/Q4*%
X209423000Y-145415000D03*
%TO.P,U19,5*%
%TO.N,Net-(U15-Pad12)*%
X201803000Y-150495000D03*
%TO.P,U19,11*%
%TO.N,/VSync/Q6*%
X209423000Y-147955000D03*
%TO.P,U19,4*%
%TO.N,/VSync/Q2*%
X201803000Y-147955000D03*
%TO.P,U19,10*%
%TO.N,N/C*%
X209423000Y-150495000D03*
%TO.P,U19,3*%
%TO.N,Net-(U14-Pad10)*%
X201803000Y-145415000D03*
%TO.P,U19,9*%
%TO.N,N/C*%
X209423000Y-153035000D03*
%TO.P,U19,2*%
%TO.N,Net-(U14-Pad12)*%
X201803000Y-142875000D03*
%TO.P,U19,8*%
%TO.N,Net-(U11-Pad1)*%
X209423000Y-155575000D03*
D11*
%TO.P,U19,1*%
%TO.N,/VSync/Q9*%
X201803000Y-140335000D03*
%TD*%
D10*
%TO.P,U18,14*%
%TO.N,GND*%
X194945000Y-140335000D03*
%TO.P,U18,7*%
%TO.N,+5V*%
X187325000Y-155575000D03*
%TO.P,U18,13*%
%TO.N,N/C*%
X194945000Y-142875000D03*
%TO.P,U18,6*%
%TO.N,Net-(U15-Pad10)*%
X187325000Y-153035000D03*
%TO.P,U18,12*%
%TO.N,/VSync/Q4*%
X194945000Y-145415000D03*
%TO.P,U18,5*%
%TO.N,/VSync/Q3*%
X187325000Y-150495000D03*
%TO.P,U18,11*%
%TO.N,/VSync/Q6*%
X194945000Y-147955000D03*
%TO.P,U18,4*%
%TO.N,/VSync/Q2*%
X187325000Y-147955000D03*
%TO.P,U18,10*%
%TO.N,N/C*%
X194945000Y-150495000D03*
%TO.P,U18,3*%
%TO.N,Net-(U14-Pad10)*%
X187325000Y-145415000D03*
%TO.P,U18,9*%
%TO.N,N/C*%
X194945000Y-153035000D03*
%TO.P,U18,2*%
%TO.N,/VSync/Q0*%
X187325000Y-142875000D03*
%TO.P,U18,8*%
%TO.N,Net-(U18-Pad8)*%
X194945000Y-155575000D03*
D11*
%TO.P,U18,1*%
%TO.N,/VSync/Q9*%
X187325000Y-140335000D03*
%TD*%
D10*
%TO.P,U17,14*%
%TO.N,+5V*%
X177800000Y-140335000D03*
%TO.P,U17,7*%
%TO.N,GND*%
X170180000Y-155575000D03*
%TO.P,U17,13*%
%TO.N,N/C*%
X177800000Y-142875000D03*
%TO.P,U17,6*%
%TO.N,Net-(U15-Pad10)*%
X170180000Y-153035000D03*
%TO.P,U17,12*%
%TO.N,/VSync/Q4*%
X177800000Y-145415000D03*
%TO.P,U17,5*%
%TO.N,/VSync/Q3*%
X170180000Y-150495000D03*
%TO.P,U17,11*%
%TO.N,/VSync/Q6*%
X177800000Y-147955000D03*
%TO.P,U17,4*%
%TO.N,Net-(U14-Pad8)*%
X170180000Y-147955000D03*
%TO.P,U17,10*%
%TO.N,N/C*%
X177800000Y-150495000D03*
%TO.P,U17,3*%
%TO.N,Net-(U14-Pad10)*%
X170180000Y-145415000D03*
%TO.P,U17,9*%
%TO.N,N/C*%
X177800000Y-153035000D03*
%TO.P,U17,2*%
%TO.N,/VSync/Q0*%
X170180000Y-142875000D03*
%TO.P,U17,8*%
%TO.N,Net-(U17-Pad8)*%
X177800000Y-155575000D03*
D11*
%TO.P,U17,1*%
%TO.N,/VSync/Q9*%
X170180000Y-140335000D03*
%TD*%
D10*
%TO.P,U16,14*%
%TO.N,+5V*%
X160020000Y-140335000D03*
%TO.P,U16,7*%
%TO.N,GND*%
X152400000Y-155575000D03*
%TO.P,U16,13*%
%TO.N,N/C*%
X160020000Y-142875000D03*
%TO.P,U16,6*%
%TO.N,Net-(U15-Pad10)*%
X152400000Y-153035000D03*
%TO.P,U16,12*%
%TO.N,/VSync/Q4*%
X160020000Y-145415000D03*
%TO.P,U16,5*%
%TO.N,/VSync/Q3*%
X152400000Y-150495000D03*
%TO.P,U16,11*%
%TO.N,/VSync/Q6*%
X160020000Y-147955000D03*
%TO.P,U16,4*%
%TO.N,Net-(U14-Pad8)*%
X152400000Y-147955000D03*
%TO.P,U16,10*%
%TO.N,N/C*%
X160020000Y-150495000D03*
%TO.P,U16,3*%
%TO.N,Net-(U14-Pad10)*%
X152400000Y-145415000D03*
%TO.P,U16,9*%
%TO.N,N/C*%
X160020000Y-153035000D03*
%TO.P,U16,2*%
%TO.N,Net-(U14-Pad12)*%
X152400000Y-142875000D03*
%TO.P,U16,8*%
%TO.N,Net-(U16-Pad8)*%
X160020000Y-155575000D03*
D11*
%TO.P,U16,1*%
%TO.N,/VSync/Q9*%
X152400000Y-140335000D03*
%TD*%
D10*
%TO.P,U15,14*%
%TO.N,+5V*%
X142240000Y-140335000D03*
%TO.P,U15,7*%
%TO.N,GND*%
X134620000Y-155575000D03*
%TO.P,U15,13*%
%TO.N,/VSync/Q3*%
X142240000Y-142875000D03*
%TO.P,U15,6*%
%TO.N,N/C*%
X134620000Y-153035000D03*
%TO.P,U15,12*%
%TO.N,Net-(U15-Pad12)*%
X142240000Y-145415000D03*
%TO.P,U15,5*%
%TO.N,N/C*%
X134620000Y-150495000D03*
%TO.P,U15,11*%
%TO.N,/VSync/Q5*%
X142240000Y-147955000D03*
%TO.P,U15,4*%
%TO.N,N/C*%
X134620000Y-147955000D03*
%TO.P,U15,10*%
%TO.N,Net-(U15-Pad10)*%
X142240000Y-150495000D03*
%TO.P,U15,3*%
%TO.N,N/C*%
X134620000Y-145415000D03*
%TO.P,U15,9*%
X142240000Y-153035000D03*
%TO.P,U15,2*%
X134620000Y-142875000D03*
%TO.P,U15,8*%
X142240000Y-155575000D03*
D11*
%TO.P,U15,1*%
X134620000Y-140335000D03*
%TD*%
D10*
%TO.P,U14,14*%
%TO.N,+5V*%
X124460000Y-140335000D03*
%TO.P,U14,7*%
%TO.N,GND*%
X116840000Y-155575000D03*
%TO.P,U14,13*%
%TO.N,/VSync/Q0*%
X124460000Y-142875000D03*
%TO.P,U14,6*%
%TO.N,N/C*%
X116840000Y-153035000D03*
%TO.P,U14,12*%
%TO.N,Net-(U14-Pad12)*%
X124460000Y-145415000D03*
%TO.P,U14,5*%
%TO.N,N/C*%
X116840000Y-150495000D03*
%TO.P,U14,11*%
%TO.N,/VSync/Q1*%
X124460000Y-147955000D03*
%TO.P,U14,4*%
%TO.N,N/C*%
X116840000Y-147955000D03*
%TO.P,U14,10*%
%TO.N,Net-(U14-Pad10)*%
X124460000Y-150495000D03*
%TO.P,U14,3*%
%TO.N,N/C*%
X116840000Y-145415000D03*
%TO.P,U14,9*%
%TO.N,/VSync/Q2*%
X124460000Y-153035000D03*
%TO.P,U14,2*%
%TO.N,N/C*%
X116840000Y-142875000D03*
%TO.P,U14,8*%
%TO.N,Net-(U14-Pad8)*%
X124460000Y-155575000D03*
D11*
%TO.P,U14,1*%
%TO.N,N/C*%
X116840000Y-140335000D03*
%TD*%
D10*
%TO.P,U13,16*%
%TO.N,+5V*%
X160020000Y-115570000D03*
%TO.P,U13,8*%
%TO.N,GND*%
X152400000Y-133350000D03*
%TO.P,U13,15*%
%TO.N,N/C*%
X160020000Y-118110000D03*
%TO.P,U13,7*%
%TO.N,+5V*%
X152400000Y-130810000D03*
%TO.P,U13,14*%
%TO.N,/VSync/Q8*%
X160020000Y-120650000D03*
%TO.P,U13,6*%
%TO.N,N/C*%
X152400000Y-128270000D03*
%TO.P,U13,13*%
%TO.N,/VSync/Q9*%
X160020000Y-123190000D03*
%TO.P,U13,5*%
%TO.N,N/C*%
X152400000Y-125730000D03*
%TO.P,U13,12*%
X160020000Y-125730000D03*
%TO.P,U13,4*%
X152400000Y-123190000D03*
%TO.P,U13,11*%
X160020000Y-128270000D03*
%TO.P,U13,3*%
X152400000Y-120650000D03*
%TO.P,U13,10*%
%TO.N,Net-(U12-Pad15)*%
X160020000Y-130810000D03*
%TO.P,U13,2*%
%TO.N,/HSync/264*%
X152400000Y-118110000D03*
%TO.P,U13,9*%
%TO.N,+5V*%
X160020000Y-133350000D03*
D11*
%TO.P,U13,1*%
%TO.N,Net-(U11-Pad1)*%
X152400000Y-115570000D03*
%TD*%
D10*
%TO.P,U11,16*%
%TO.N,+5V*%
X108458000Y-140335000D03*
%TO.P,U11,8*%
%TO.N,GND*%
X100838000Y-158115000D03*
%TO.P,U11,15*%
%TO.N,Net-(U11-Pad15)*%
X108458000Y-142875000D03*
%TO.P,U11,7*%
%TO.N,+5V*%
X100838000Y-155575000D03*
%TO.P,U11,14*%
%TO.N,/VSync/Q0*%
X108458000Y-145415000D03*
%TO.P,U11,6*%
%TO.N,N/C*%
X100838000Y-153035000D03*
%TO.P,U11,13*%
%TO.N,/VSync/Q1*%
X108458000Y-147955000D03*
%TO.P,U11,5*%
%TO.N,N/C*%
X100838000Y-150495000D03*
%TO.P,U11,12*%
%TO.N,/VSync/Q2*%
X108458000Y-150495000D03*
%TO.P,U11,4*%
%TO.N,N/C*%
X100838000Y-147955000D03*
%TO.P,U11,11*%
%TO.N,/VSync/Q3*%
X108458000Y-153035000D03*
%TO.P,U11,3*%
%TO.N,N/C*%
X100838000Y-145415000D03*
%TO.P,U11,10*%
%TO.N,+5V*%
X108458000Y-155575000D03*
%TO.P,U11,2*%
%TO.N,/HSync/264*%
X100838000Y-142875000D03*
%TO.P,U11,9*%
%TO.N,+5V*%
X108458000Y-158115000D03*
D11*
%TO.P,U11,1*%
%TO.N,Net-(U11-Pad1)*%
X100838000Y-140335000D03*
%TD*%
D12*
%TO.P,X1,7*%
%TO.N,GND*%
X110490000Y-72390000D03*
%TO.P,X1,8*%
%TO.N,/HSync/CLK*%
X102870000Y-72390000D03*
%TO.P,X1,14*%
%TO.N,+5V*%
X102870000Y-87630000D03*
D13*
%TO.P,X1,1*%
X110490000Y-87630000D03*
%TD*%
D10*
%TO.P,U9,14*%
%TO.N,+5V*%
X142240000Y-95250000D03*
%TO.P,U9,7*%
%TO.N,GND*%
X134620000Y-110490000D03*
%TO.P,U9,13*%
%TO.N,N/C*%
X142240000Y-97790000D03*
%TO.P,U9,6*%
%TO.N,/HSync/Q8*%
X134620000Y-107950000D03*
%TO.P,U9,12*%
%TO.N,Net-(U4-Pad4)*%
X142240000Y-100330000D03*
%TO.P,U9,5*%
%TO.N,Net-(U5-Pad10)*%
X134620000Y-105410000D03*
%TO.P,U9,11*%
%TO.N,Net-(U4-Pad6)*%
X142240000Y-102870000D03*
%TO.P,U9,4*%
%TO.N,Net-(U5-Pad12)*%
X134620000Y-102870000D03*
%TO.P,U9,10*%
%TO.N,N/C*%
X142240000Y-105410000D03*
%TO.P,U9,3*%
%TO.N,Net-(U4-Pad8)*%
X134620000Y-100330000D03*
%TO.P,U9,9*%
%TO.N,N/C*%
X142240000Y-107950000D03*
%TO.P,U9,2*%
%TO.N,Net-(U4-Pad10)*%
X134620000Y-97790000D03*
%TO.P,U9,8*%
%TO.N,/HSync/264*%
X142240000Y-110490000D03*
D11*
%TO.P,U9,1*%
%TO.N,/HSync/Q3*%
X134620000Y-95250000D03*
%TD*%
D10*
%TO.P,U8,14*%
%TO.N,+5V*%
X134620000Y-133350000D03*
%TO.P,U8,7*%
%TO.N,GND*%
X142240000Y-118110000D03*
%TO.P,U8,13*%
%TO.N,N/C*%
X134620000Y-130810000D03*
%TO.P,U8,6*%
%TO.N,/HSync/Q7*%
X142240000Y-120650000D03*
%TO.P,U8,12*%
%TO.N,Net-(U4-Pad2)*%
X134620000Y-128270000D03*
%TO.P,U8,5*%
%TO.N,/HSync/Q6*%
X142240000Y-123190000D03*
%TO.P,U8,11*%
%TO.N,/HSync/Q1*%
X134620000Y-125730000D03*
%TO.P,U8,4*%
%TO.N,/HSync/Q5*%
X142240000Y-125730000D03*
%TO.P,U8,10*%
%TO.N,N/C*%
X134620000Y-123190000D03*
%TO.P,U8,3*%
%TO.N,/HSync/Q4*%
X142240000Y-128270000D03*
%TO.P,U8,9*%
%TO.N,N/C*%
X134620000Y-120650000D03*
%TO.P,U8,2*%
%TO.N,Net-(U4-Pad12)*%
X142240000Y-130810000D03*
%TO.P,U8,8*%
%TO.N,Net-(U10-Pad13)*%
X134620000Y-118110000D03*
D11*
%TO.P,U8,1*%
%TO.N,Net-(U4-Pad6)*%
X142240000Y-133350000D03*
%TD*%
D10*
%TO.P,U7,14*%
%TO.N,+5V*%
X116840000Y-133350000D03*
%TO.P,U7,7*%
%TO.N,GND*%
X124460000Y-118110000D03*
%TO.P,U7,13*%
%TO.N,N/C*%
X116840000Y-130810000D03*
%TO.P,U7,6*%
%TO.N,/HSync/Q7*%
X124460000Y-120650000D03*
%TO.P,U7,12*%
%TO.N,Net-(U4-Pad2)*%
X116840000Y-128270000D03*
%TO.P,U7,5*%
%TO.N,/HSync/Q6*%
X124460000Y-123190000D03*
%TO.P,U7,11*%
%TO.N,/HSync/Q1*%
X116840000Y-125730000D03*
%TO.P,U7,4*%
%TO.N,Net-(U4-Pad8)*%
X124460000Y-125730000D03*
%TO.P,U7,10*%
%TO.N,N/C*%
X116840000Y-123190000D03*
%TO.P,U7,3*%
%TO.N,/HSync/Q4*%
X124460000Y-128270000D03*
%TO.P,U7,9*%
%TO.N,N/C*%
X116840000Y-120650000D03*
%TO.P,U7,2*%
%TO.N,Net-(U4-Pad12)*%
X124460000Y-130810000D03*
%TO.P,U7,8*%
%TO.N,Net-(U10-Pad9)*%
X116840000Y-118110000D03*
D11*
%TO.P,U7,1*%
%TO.N,Net-(U4-Pad6)*%
X124460000Y-133350000D03*
%TD*%
D10*
%TO.P,U6,14*%
%TO.N,+5V*%
X97790000Y-133350000D03*
%TO.P,U6,7*%
%TO.N,GND*%
X105410000Y-118110000D03*
%TO.P,U6,13*%
%TO.N,N/C*%
X97790000Y-130810000D03*
%TO.P,U6,6*%
%TO.N,/HSync/Q7*%
X105410000Y-120650000D03*
%TO.P,U6,12*%
%TO.N,Net-(U4-Pad2)*%
X97790000Y-128270000D03*
%TO.P,U6,5*%
%TO.N,/HSync/Q6*%
X105410000Y-123190000D03*
%TO.P,U6,11*%
%TO.N,Net-(U4-Pad4)*%
X97790000Y-125730000D03*
%TO.P,U6,4*%
%TO.N,Net-(U4-Pad8)*%
X105410000Y-125730000D03*
%TO.P,U6,10*%
%TO.N,N/C*%
X97790000Y-123190000D03*
%TO.P,U6,3*%
%TO.N,Net-(U4-Pad10)*%
X105410000Y-128270000D03*
%TO.P,U6,9*%
%TO.N,N/C*%
X97790000Y-120650000D03*
%TO.P,U6,2*%
%TO.N,/HSync/Q3*%
X105410000Y-130810000D03*
%TO.P,U6,8*%
%TO.N,Net-(U10-Pad5)*%
X97790000Y-118110000D03*
D11*
%TO.P,U6,1*%
%TO.N,Net-(U4-Pad6)*%
X105410000Y-133350000D03*
%TD*%
D10*
%TO.P,U3,16*%
%TO.N,+5V*%
X160020000Y-69850000D03*
%TO.P,U3,8*%
%TO.N,GND*%
X152400000Y-87630000D03*
%TO.P,U3,15*%
%TO.N,N/C*%
X160020000Y-72390000D03*
%TO.P,U3,7*%
%TO.N,+5V*%
X152400000Y-85090000D03*
%TO.P,U3,14*%
%TO.N,/HSync/Q8*%
X160020000Y-74930000D03*
%TO.P,U3,6*%
%TO.N,N/C*%
X152400000Y-82550000D03*
%TO.P,U3,13*%
X160020000Y-77470000D03*
%TO.P,U3,5*%
X152400000Y-80010000D03*
%TO.P,U3,12*%
X160020000Y-80010000D03*
%TO.P,U3,4*%
X152400000Y-77470000D03*
%TO.P,U3,11*%
X160020000Y-82550000D03*
%TO.P,U3,3*%
X152400000Y-74930000D03*
%TO.P,U3,10*%
%TO.N,Net-(U2-Pad15)*%
X160020000Y-85090000D03*
%TO.P,U3,2*%
%TO.N,/HSync/CLK*%
X152400000Y-72390000D03*
%TO.P,U3,9*%
%TO.N,+5V*%
X160020000Y-87630000D03*
D11*
%TO.P,U3,1*%
%TO.N,/HSync/264*%
X152400000Y-69850000D03*
%TD*%
D10*
%TO.P,U2,16*%
%TO.N,+5V*%
X142240000Y-69850000D03*
%TO.P,U2,8*%
%TO.N,GND*%
X134620000Y-87630000D03*
%TO.P,U2,15*%
%TO.N,Net-(U2-Pad15)*%
X142240000Y-72390000D03*
%TO.P,U2,7*%
%TO.N,+5V*%
X134620000Y-85090000D03*
%TO.P,U2,14*%
%TO.N,/HSync/Q4*%
X142240000Y-74930000D03*
%TO.P,U2,6*%
%TO.N,N/C*%
X134620000Y-82550000D03*
%TO.P,U2,13*%
%TO.N,/HSync/Q5*%
X142240000Y-77470000D03*
%TO.P,U2,5*%
%TO.N,N/C*%
X134620000Y-80010000D03*
%TO.P,U2,12*%
%TO.N,/HSync/Q6*%
X142240000Y-80010000D03*
%TO.P,U2,4*%
%TO.N,N/C*%
X134620000Y-77470000D03*
%TO.P,U2,11*%
%TO.N,/HSync/Q7*%
X142240000Y-82550000D03*
%TO.P,U2,3*%
%TO.N,N/C*%
X134620000Y-74930000D03*
%TO.P,U2,10*%
%TO.N,Net-(U1-Pad15)*%
X142240000Y-85090000D03*
%TO.P,U2,2*%
%TO.N,/HSync/CLK*%
X134620000Y-72390000D03*
%TO.P,U2,9*%
%TO.N,+5V*%
X142240000Y-87630000D03*
D11*
%TO.P,U2,1*%
%TO.N,/HSync/264*%
X134620000Y-69850000D03*
%TD*%
D10*
%TO.P,U1,16*%
%TO.N,+5V*%
X124460000Y-69850000D03*
%TO.P,U1,8*%
%TO.N,GND*%
X116840000Y-87630000D03*
%TO.P,U1,15*%
%TO.N,Net-(U1-Pad15)*%
X124460000Y-72390000D03*
%TO.P,U1,7*%
%TO.N,+5V*%
X116840000Y-85090000D03*
%TO.P,U1,14*%
%TO.N,/HSync/Q0*%
X124460000Y-74930000D03*
%TO.P,U1,6*%
%TO.N,N/C*%
X116840000Y-82550000D03*
%TO.P,U1,13*%
%TO.N,/HSync/Q1*%
X124460000Y-77470000D03*
%TO.P,U1,5*%
%TO.N,N/C*%
X116840000Y-80010000D03*
%TO.P,U1,12*%
%TO.N,/HSync/Q2*%
X124460000Y-80010000D03*
%TO.P,U1,4*%
%TO.N,N/C*%
X116840000Y-77470000D03*
%TO.P,U1,11*%
%TO.N,/HSync/Q3*%
X124460000Y-82550000D03*
%TO.P,U1,3*%
%TO.N,N/C*%
X116840000Y-74930000D03*
%TO.P,U1,10*%
%TO.N,+5V*%
X124460000Y-85090000D03*
%TO.P,U1,2*%
%TO.N,/HSync/CLK*%
X116840000Y-72390000D03*
%TO.P,U1,9*%
%TO.N,+5V*%
X124460000Y-87630000D03*
D11*
%TO.P,U1,1*%
%TO.N,/HSync/264*%
X116840000Y-69850000D03*
%TD*%
D10*
%TO.P,U5,14*%
%TO.N,+5V*%
X124460000Y-95250000D03*
%TO.P,U5,7*%
%TO.N,GND*%
X116840000Y-110490000D03*
%TO.P,U5,13*%
%TO.N,/HSync/Q6*%
X124460000Y-97790000D03*
%TO.P,U5,6*%
%TO.N,N/C*%
X116840000Y-107950000D03*
%TO.P,U5,12*%
%TO.N,Net-(U5-Pad12)*%
X124460000Y-100330000D03*
%TO.P,U5,5*%
%TO.N,N/C*%
X116840000Y-105410000D03*
%TO.P,U5,11*%
%TO.N,/HSync/Q7*%
X124460000Y-102870000D03*
%TO.P,U5,4*%
%TO.N,N/C*%
X116840000Y-102870000D03*
%TO.P,U5,10*%
%TO.N,Net-(U5-Pad10)*%
X124460000Y-105410000D03*
%TO.P,U5,3*%
%TO.N,N/C*%
X116840000Y-100330000D03*
%TO.P,U5,9*%
%TO.N,/HSync/Q8*%
X124460000Y-107950000D03*
%TO.P,U5,2*%
%TO.N,N/C*%
X116840000Y-97790000D03*
%TO.P,U5,8*%
X124460000Y-110490000D03*
D11*
%TO.P,U5,1*%
X116840000Y-95250000D03*
%TD*%
D10*
%TO.P,U4,14*%
%TO.N,+5V*%
X105410000Y-95250000D03*
%TO.P,U4,7*%
%TO.N,GND*%
X97790000Y-110490000D03*
%TO.P,U4,13*%
%TO.N,/HSync/Q3*%
X105410000Y-97790000D03*
%TO.P,U4,6*%
%TO.N,Net-(U4-Pad6)*%
X97790000Y-107950000D03*
%TO.P,U4,12*%
%TO.N,Net-(U4-Pad12)*%
X105410000Y-100330000D03*
%TO.P,U4,5*%
%TO.N,/HSync/Q2*%
X97790000Y-105410000D03*
%TO.P,U4,11*%
%TO.N,/HSync/Q4*%
X105410000Y-102870000D03*
%TO.P,U4,4*%
%TO.N,Net-(U4-Pad4)*%
X97790000Y-102870000D03*
%TO.P,U4,10*%
%TO.N,Net-(U4-Pad10)*%
X105410000Y-105410000D03*
%TO.P,U4,3*%
%TO.N,/HSync/Q1*%
X97790000Y-100330000D03*
%TO.P,U4,9*%
%TO.N,/HSync/Q5*%
X105410000Y-107950000D03*
%TO.P,U4,2*%
%TO.N,Net-(U4-Pad2)*%
X97790000Y-97790000D03*
%TO.P,U4,8*%
%TO.N,Net-(U4-Pad8)*%
X105410000Y-110490000D03*
D11*
%TO.P,U4,1*%
%TO.N,/HSync/Q0*%
X97790000Y-95250000D03*
%TD*%
D10*
%TO.P,U22,28*%
%TO.N,+5V*%
X185420000Y-95250000D03*
%TO.P,U22,14*%
%TO.N,GND*%
X170180000Y-128270000D03*
%TO.P,U22,27*%
%TO.N,+5V*%
X185420000Y-97790000D03*
%TO.P,U22,13*%
%TO.N,Net-(R4-Pad1)*%
X170180000Y-125730000D03*
%TO.P,U22,26*%
%TO.N,/VSync/Q9*%
X185420000Y-100330000D03*
%TO.P,U22,12*%
%TO.N,Net-(R5-Pad1)*%
X170180000Y-123190000D03*
%TO.P,U22,25*%
%TO.N,/VSync/Q4*%
X185420000Y-102870000D03*
%TO.P,U22,11*%
%TO.N,Net-(R6-Pad1)*%
X170180000Y-120650000D03*
%TO.P,U22,24*%
%TO.N,/VSync/Q5*%
X185420000Y-105410000D03*
%TO.P,U22,10*%
%TO.N,/HSync/Q1*%
X170180000Y-118110000D03*
%TO.P,U22,23*%
%TO.N,/VSync/Q7*%
X185420000Y-107950000D03*
%TO.P,U22,9*%
%TO.N,/HSync/Q2*%
X170180000Y-115570000D03*
%TO.P,U22,22*%
%TO.N,Net-(U22-Pad22)*%
X185420000Y-110490000D03*
%TO.P,U22,8*%
%TO.N,/HSync/Q3*%
X170180000Y-113030000D03*
%TO.P,U22,21*%
%TO.N,/VSync/Q6*%
X185420000Y-113030000D03*
%TO.P,U22,7*%
%TO.N,/HSync/Q4*%
X170180000Y-110490000D03*
%TO.P,U22,20*%
%TO.N,GND*%
X185420000Y-115570000D03*
%TO.P,U22,6*%
%TO.N,/HSync/Q5*%
X170180000Y-107950000D03*
%TO.P,U22,19*%
%TO.N,N/C*%
X185420000Y-118110000D03*
%TO.P,U22,5*%
%TO.N,/HSync/Q6*%
X170180000Y-105410000D03*
%TO.P,U22,18*%
%TO.N,N/C*%
X185420000Y-120650000D03*
%TO.P,U22,4*%
%TO.N,/HSync/Q7*%
X170180000Y-102870000D03*
%TO.P,U22,17*%
%TO.N,Net-(R1-Pad1)*%
X185420000Y-123190000D03*
%TO.P,U22,3*%
%TO.N,/VSync/Q3*%
X170180000Y-100330000D03*
%TO.P,U22,16*%
%TO.N,Net-(R2-Pad1)*%
X185420000Y-125730000D03*
%TO.P,U22,2*%
%TO.N,/VSync/Q8*%
X170180000Y-97790000D03*
%TO.P,U22,15*%
%TO.N,Net-(R3-Pad1)*%
X185420000Y-128270000D03*
D11*
%TO.P,U22,1*%
%TO.N,GND*%
X170180000Y-95250000D03*
%TD*%
D14*
%TO.P,J2,2*%
%TO.N,GND*%
X205232000Y-69850000D03*
D15*
%TO.P,J2,1*%
%TO.N,+5V*%
X207772000Y-69850000D03*
%TD*%
D12*
%TO.P,C21,1*%
%TO.N,+5V*%
X199517000Y-69850000D03*
%TO.P,C21,2*%
%TO.N,GND*%
X199517000Y-72350000D03*
%TD*%
%TO.P,C20,1*%
%TO.N,+5V*%
X203200000Y-89027000D03*
%TO.P,C20,2*%
%TO.N,GND*%
X203200000Y-86527000D03*
%TD*%
%TO.P,C19,1*%
%TO.N,+5V*%
X198374000Y-155575000D03*
%TO.P,C19,2*%
%TO.N,GND*%
X198374000Y-153075000D03*
%TD*%
%TO.P,C18,1*%
%TO.N,+5V*%
X183769000Y-155575000D03*
%TO.P,C18,2*%
%TO.N,GND*%
X183769000Y-153075000D03*
%TD*%
%TO.P,C17,1*%
%TO.N,+5V*%
X181356000Y-140335000D03*
%TO.P,C17,2*%
%TO.N,GND*%
X181356000Y-137835000D03*
%TD*%
%TO.P,C16,1*%
%TO.N,+5V*%
X163830000Y-140335000D03*
%TO.P,C16,2*%
%TO.N,GND*%
X163830000Y-137835000D03*
%TD*%
%TO.P,C15,1*%
%TO.N,+5V*%
X146050000Y-140335000D03*
%TO.P,C15,2*%
%TO.N,GND*%
X146050000Y-137835000D03*
%TD*%
%TO.P,C14,1*%
%TO.N,+5V*%
X128270000Y-140335000D03*
%TO.P,C14,2*%
%TO.N,GND*%
X128270000Y-137835000D03*
%TD*%
%TO.P,C13,1*%
%TO.N,+5V*%
X163703000Y-115570000D03*
%TO.P,C13,2*%
%TO.N,GND*%
X163703000Y-113070000D03*
%TD*%
%TO.P,C12,1*%
%TO.N,+5V*%
X181356000Y-69850000D03*
%TO.P,C12,2*%
%TO.N,GND*%
X181356000Y-72350000D03*
%TD*%
%TO.P,C11,1*%
%TO.N,+5V*%
X112014000Y-140335000D03*
%TO.P,C11,2*%
%TO.N,GND*%
X112014000Y-137835000D03*
%TD*%
%TO.P,C10,1*%
%TO.N,+5V*%
X163957000Y-95250000D03*
%TO.P,C10,2*%
%TO.N,GND*%
X163957000Y-92750000D03*
%TD*%
%TO.P,C9,1*%
%TO.N,+5V*%
X146050000Y-95250000D03*
%TO.P,C9,2*%
%TO.N,GND*%
X146050000Y-92750000D03*
%TD*%
%TO.P,C8,1*%
%TO.N,+5V*%
X130810000Y-133350000D03*
%TO.P,C8,2*%
%TO.N,GND*%
X130810000Y-130850000D03*
%TD*%
%TO.P,C7,1*%
%TO.N,+5V*%
X113030000Y-133350000D03*
%TO.P,C7,2*%
%TO.N,GND*%
X113030000Y-130850000D03*
%TD*%
%TO.P,C6,1*%
%TO.N,+5V*%
X97790000Y-136525000D03*
%TO.P,C6,2*%
%TO.N,GND*%
X97790000Y-139025000D03*
%TD*%
%TO.P,C5,1*%
%TO.N,+5V*%
X128270000Y-95250000D03*
%TO.P,C5,2*%
%TO.N,GND*%
X128270000Y-92750000D03*
%TD*%
%TO.P,C4,1*%
%TO.N,+5V*%
X109220000Y-95250000D03*
%TO.P,C4,2*%
%TO.N,GND*%
X109220000Y-92750000D03*
%TD*%
%TO.P,C3,1*%
%TO.N,+5V*%
X163703000Y-69850000D03*
%TO.P,C3,2*%
%TO.N,GND*%
X163703000Y-72350000D03*
%TD*%
%TO.P,C2,1*%
%TO.N,+5V*%
X146050000Y-69850000D03*
%TO.P,C2,2*%
%TO.N,GND*%
X146050000Y-72350000D03*
%TD*%
%TO.P,C1,1*%
%TO.N,+5V*%
X128270000Y-69850000D03*
%TO.P,C1,2*%
%TO.N,GND*%
X128270000Y-72350000D03*
%TD*%
D16*
%TO.P,R6,2*%
%TO.N,Net-(J1-Pad3)*%
X200787000Y-128016000D03*
D17*
%TO.P,R6,1*%
%TO.N,Net-(R6-Pad1)*%
X193167000Y-128016000D03*
%TD*%
D16*
%TO.P,R5,2*%
%TO.N,Net-(J1-Pad3)*%
X200787000Y-124968000D03*
D17*
%TO.P,R5,1*%
%TO.N,Net-(R5-Pad1)*%
X193167000Y-124968000D03*
%TD*%
D16*
%TO.P,R4,2*%
%TO.N,Net-(J1-Pad2)*%
X200787000Y-118872000D03*
D17*
%TO.P,R4,1*%
%TO.N,Net-(R4-Pad1)*%
X193167000Y-118872000D03*
%TD*%
D16*
%TO.P,R3,2*%
%TO.N,Net-(J1-Pad2)*%
X200787000Y-121666000D03*
D17*
%TO.P,R3,1*%
%TO.N,Net-(R3-Pad1)*%
X193167000Y-121666000D03*
%TD*%
D16*
%TO.P,R2,2*%
%TO.N,Net-(J1-Pad1)*%
X200787000Y-115570000D03*
D17*
%TO.P,R2,1*%
%TO.N,Net-(R2-Pad1)*%
X193167000Y-115570000D03*
%TD*%
D16*
%TO.P,R1,2*%
%TO.N,Net-(J1-Pad1)*%
X200787000Y-112649000D03*
D17*
%TO.P,R1,1*%
%TO.N,Net-(R1-Pad1)*%
X193167000Y-112649000D03*
%TD*%
D18*
%TO.P,J1,0*%
%TO.N,N/C*%
X210838000Y-107639000D03*
X210838000Y-132639000D03*
D12*
%TO.P,J1,15*%
X212748000Y-124984000D03*
%TO.P,J1,14*%
%TO.N,VSYNC*%
X212748000Y-122694000D03*
%TO.P,J1,13*%
%TO.N,HSYNC*%
X212748000Y-120404000D03*
%TO.P,J1,12*%
%TO.N,N/C*%
X212748000Y-118114000D03*
%TO.P,J1,11*%
X212748000Y-115824000D03*
%TO.P,J1,10*%
%TO.N,GND*%
X210768000Y-123839000D03*
%TO.P,J1,9*%
%TO.N,N/C*%
X210768000Y-121549000D03*
%TO.P,J1,8*%
%TO.N,GND*%
X210768000Y-119259000D03*
%TO.P,J1,7*%
X210768000Y-116969000D03*
%TO.P,J1,6*%
X210768000Y-114679000D03*
%TO.P,J1,5*%
X208788000Y-124984000D03*
%TO.P,J1,4*%
%TO.N,N/C*%
X208788000Y-122694000D03*
%TO.P,J1,3*%
%TO.N,Net-(J1-Pad3)*%
X208788000Y-120404000D03*
%TO.P,J1,2*%
%TO.N,Net-(J1-Pad2)*%
X208788000Y-118114000D03*
D13*
%TO.P,J1,1*%
%TO.N,Net-(J1-Pad1)*%
X208788000Y-115824000D03*
%TD*%
D19*
%TO.N,/HSync/Q1*%
X104775000Y-113665006D03*
X166750994Y-121539000D03*
%TO.N,/HSync/Q4*%
X108585000Y-110490000D03*
%TO.N,/HSync/Q7*%
X174752000Y-92329000D03*
%TO.N,/HSync/HBLANK*%
X165481000Y-77216000D03*
%TO.N,/HSync/Q8*%
X155956000Y-92329000D03*
%TO.N,/VSync/Q9*%
X164211000Y-126873000D03*
%TO.N,/VSync/Q5*%
X138303000Y-155321000D03*
X205359000Y-114046000D03*
%TO.N,Net-(U14-Pad12)*%
X154305000Y-137668000D03*
%TO.N,Net-(U10-Pad9)*%
X156082990Y-107950000D03*
%TD*%
D20*
%TO.N,/HSync/CLK*%
X102870000Y-72390000D02*
X104775000Y-74295000D01*
X104775000Y-74295000D02*
X113030000Y-74295000D01*
X114935000Y-72390000D02*
X116840000Y-72390000D01*
X113030000Y-74295000D02*
X114935000Y-72390000D01*
X150622000Y-72390000D02*
X152527000Y-72390000D01*
X149352000Y-71120000D02*
X150622000Y-72390000D01*
X135890000Y-71120000D02*
X149352000Y-71120000D01*
X133350000Y-71120000D02*
X134620000Y-72390000D01*
X121285000Y-71120000D02*
X133350000Y-71120000D01*
X134620000Y-72390000D02*
X135890000Y-71120000D01*
X120015000Y-72390000D02*
X121285000Y-71120000D01*
X116840000Y-72390000D02*
X120015000Y-72390000D01*
%TO.N,/HSync/264*%
X118745000Y-67945000D02*
X132715000Y-67945000D01*
X132715000Y-67945000D02*
X134620000Y-69850000D01*
X116840000Y-69850000D02*
X118745000Y-67945000D01*
X136525000Y-67945000D02*
X134620000Y-69850000D01*
X152400000Y-69850000D02*
X150495000Y-67945000D01*
X150495000Y-67945000D02*
X136525000Y-67945000D01*
X154305000Y-67945000D02*
X152400000Y-69850000D01*
X166751000Y-71247000D02*
X166751000Y-69088000D01*
X165608000Y-67945000D02*
X154305000Y-67945000D01*
X166751000Y-69088000D02*
X165608000Y-67945000D01*
X167894000Y-72390000D02*
X166751000Y-71247000D01*
X170180000Y-72390000D02*
X167894000Y-72390000D01*
%TO.N,Net-(J1-Pad3)*%
X200787000Y-128016000D02*
X200787000Y-124968000D01*
X202565000Y-124968000D02*
X200787000Y-124968000D01*
X207129000Y-120404000D02*
X202565000Y-124968000D01*
X208788000Y-120404000D02*
X207129000Y-120404000D01*
%TO.N,Net-(J1-Pad2)*%
X200787000Y-118872000D02*
X200787000Y-121666000D01*
X206371000Y-118114000D02*
X208788000Y-118114000D01*
X205613000Y-118872000D02*
X206371000Y-118114000D01*
X200787000Y-118872000D02*
X205613000Y-118872000D01*
%TO.N,Net-(J1-Pad1)*%
X200787000Y-112649000D02*
X200787000Y-115443000D01*
X205867000Y-115824000D02*
X208788000Y-115824000D01*
X205613000Y-115570000D02*
X205867000Y-115824000D01*
X200787000Y-115570000D02*
X205613000Y-115570000D01*
%TO.N,Net-(R1-Pad1)*%
X187706000Y-122809000D02*
X187325000Y-123190000D01*
X187706000Y-114046000D02*
X187706000Y-122809000D01*
X189103000Y-112649000D02*
X187706000Y-114046000D01*
X187325000Y-123190000D02*
X185420000Y-123190000D01*
X193167000Y-112649000D02*
X189103000Y-112649000D01*
%TO.N,Net-(R2-Pad1)*%
X189484000Y-115570000D02*
X193421000Y-115570000D01*
X188341000Y-116713000D02*
X189484000Y-115570000D01*
X188341000Y-125349000D02*
X188341000Y-116713000D01*
X187960000Y-125730000D02*
X188341000Y-125349000D01*
X185420000Y-125730000D02*
X187960000Y-125730000D01*
%TO.N,Net-(R3-Pad1)*%
X190627000Y-122809000D02*
X191770000Y-121666000D01*
X190627000Y-126365000D02*
X190627000Y-122809000D01*
X191770000Y-121666000D02*
X193421000Y-121666000D01*
X188722000Y-128270000D02*
X190627000Y-126365000D01*
X185420000Y-128270000D02*
X188722000Y-128270000D01*
%TO.N,/HSync/Q1*%
X120030990Y-78724010D02*
X121285000Y-77470000D01*
X115952553Y-78724010D02*
X120030990Y-78724010D01*
X121285000Y-77470000D02*
X124460000Y-77470000D01*
X116205000Y-78740000D02*
X116220990Y-78724010D01*
X113665000Y-80601998D02*
X115526998Y-78740000D01*
X113665000Y-86995000D02*
X113665000Y-80601998D01*
X111125000Y-89535000D02*
X113665000Y-86995000D01*
X107681563Y-89535000D02*
X111125000Y-89535000D01*
X115526998Y-78740000D02*
X116205000Y-78740000D01*
X101600000Y-95616563D02*
X107681563Y-89535000D01*
X101600000Y-99060000D02*
X101600000Y-95616563D01*
X100330000Y-100330000D02*
X101600000Y-99060000D01*
X97790000Y-100330000D02*
X100330000Y-100330000D01*
X131064000Y-125730000D02*
X134620000Y-125730000D01*
X129809990Y-124475990D02*
X131064000Y-125730000D01*
X118094010Y-124475990D02*
X129809990Y-124475990D01*
X116840000Y-125730000D02*
X118094010Y-124475990D01*
X161289994Y-127000000D02*
X166750994Y-121539000D01*
X139065000Y-127000000D02*
X161289994Y-127000000D01*
X137795000Y-125730000D02*
X139065000Y-127000000D01*
X134620000Y-125730000D02*
X137795000Y-125730000D01*
%TO.N,/HSync/Q2*%
X172212000Y-115570000D02*
X170180000Y-115570000D01*
X173736000Y-93091000D02*
X173736000Y-114046000D01*
X171323000Y-90678000D02*
X173736000Y-93091000D01*
X133223000Y-90678000D02*
X171323000Y-90678000D01*
X173736000Y-114046000D02*
X172212000Y-115570000D01*
X132080000Y-89535000D02*
X133223000Y-90678000D01*
X132080000Y-85725000D02*
X132080000Y-89535000D01*
X126365000Y-80010000D02*
X132080000Y-85725000D01*
X124460000Y-80010000D02*
X126365000Y-80010000D01*
%TO.N,/HSync/Q3*%
X130810000Y-86360000D02*
X127000000Y-82550000D01*
X127000000Y-82550000D02*
X124460000Y-82550000D01*
X130810000Y-93345000D02*
X130810000Y-86360000D01*
X132715000Y-95250000D02*
X130810000Y-93345000D01*
X134620000Y-95250000D02*
X132715000Y-95250000D01*
X121920000Y-83185000D02*
X122555000Y-82550000D01*
X121920000Y-88900000D02*
X121920000Y-83185000D01*
X119380000Y-91440000D02*
X121920000Y-88900000D01*
X115570000Y-91440000D02*
X119380000Y-91440000D01*
X122555000Y-82550000D02*
X124460000Y-82550000D01*
X113030000Y-93980000D02*
X115570000Y-91440000D01*
X112395000Y-97790000D02*
X113030000Y-97155000D01*
X113030000Y-97155000D02*
X113030000Y-93980000D01*
X105410000Y-97790000D02*
X112395000Y-97790000D01*
X134620000Y-94196000D02*
X134620000Y-95250000D01*
X172720000Y-112268000D02*
X172720000Y-93853000D01*
X170307000Y-91440000D02*
X137376000Y-91440000D01*
X172720000Y-93853000D02*
X170307000Y-91440000D01*
X171958000Y-113030000D02*
X172720000Y-112268000D01*
X137376000Y-91440000D02*
X134620000Y-94196000D01*
X170180000Y-113030000D02*
X171958000Y-113030000D01*
%TO.N,/HSync/Q4*%
X107569000Y-102870000D02*
X108585000Y-103886000D01*
X108585000Y-103886000D02*
X108585000Y-110490000D01*
X105410000Y-102870000D02*
X107569000Y-102870000D01*
X124660010Y-127015990D02*
X124460000Y-127216000D01*
X137810990Y-127015990D02*
X124660010Y-127015990D01*
X139065000Y-128270000D02*
X137810990Y-127015990D01*
X148082000Y-128270000D02*
X139065000Y-128270000D01*
X124460000Y-127216000D02*
X124460000Y-128270000D01*
X149352000Y-129540000D02*
X148082000Y-128270000D01*
X170180000Y-110490000D02*
X168656000Y-110490000D01*
X168275000Y-110871000D02*
X168275000Y-125222000D01*
X168275000Y-125222000D02*
X163957000Y-129540000D01*
X163957000Y-129540000D02*
X149352000Y-129540000D01*
X168656000Y-110490000D02*
X168275000Y-110871000D01*
%TO.N,/HSync/Q5*%
X167513000Y-108331000D02*
X167894000Y-107950000D01*
X167513000Y-118872000D02*
X167513000Y-108331000D01*
X161925000Y-124460000D02*
X167513000Y-118872000D01*
X149352000Y-124460000D02*
X161925000Y-124460000D01*
X167894000Y-107950000D02*
X170180000Y-107950000D01*
X148082000Y-125730000D02*
X149352000Y-124460000D01*
X142240000Y-125730000D02*
X148082000Y-125730000D01*
%TO.N,/HSync/Q6*%
X119395990Y-121935990D02*
X110474010Y-121935990D01*
X120650000Y-123190000D02*
X119395990Y-121935990D01*
X124460000Y-123190000D02*
X120650000Y-123190000D01*
X109220000Y-123190000D02*
X105410000Y-123190000D01*
X110474010Y-121935990D02*
X109220000Y-123190000D01*
X113014010Y-121935990D02*
X110474010Y-121935990D01*
X128254010Y-121935990D02*
X127000000Y-123190000D01*
X139065000Y-123190000D02*
X137810990Y-121935990D01*
X147574000Y-123190000D02*
X139065000Y-123190000D01*
X148844000Y-121920000D02*
X147574000Y-123190000D01*
X162941000Y-121920000D02*
X148844000Y-121920000D01*
X127000000Y-123190000D02*
X124460000Y-123190000D01*
X166624000Y-118237000D02*
X162941000Y-121920000D01*
X166624000Y-105918000D02*
X166624000Y-118237000D01*
X167132000Y-105410000D02*
X166624000Y-105918000D01*
X137810990Y-121935990D02*
X128254010Y-121935990D01*
X170180000Y-105410000D02*
X167132000Y-105410000D01*
%TO.N,/HSync/Q7*%
X113030000Y-120650000D02*
X105410000Y-120650000D01*
X114919010Y-119395990D02*
X113665000Y-120650000D01*
X113665000Y-120650000D02*
X110490000Y-120650000D01*
X123205990Y-119395990D02*
X114919010Y-119395990D01*
X124460000Y-120650000D02*
X123205990Y-119395990D01*
X145351500Y-88328500D02*
X146939000Y-89916000D01*
X172339000Y-89916000D02*
X174752000Y-92329000D01*
X145351500Y-83629500D02*
X145351500Y-88328500D01*
X146939000Y-89916000D02*
X172339000Y-89916000D01*
X144272000Y-82550000D02*
X145351500Y-83629500D01*
X142240000Y-82550000D02*
X144272000Y-82550000D01*
X127000000Y-120650000D02*
X124460000Y-120650000D01*
X128270000Y-119380000D02*
X127000000Y-120650000D01*
X137922000Y-119380000D02*
X128270000Y-119380000D01*
X139192000Y-120650000D02*
X137922000Y-119380000D01*
X142240000Y-120650000D02*
X139192000Y-120650000D01*
%TO.N,/HSync/HBLANK*%
X174498000Y-71120000D02*
X171958000Y-73660000D01*
X169037000Y-73660000D02*
X165481000Y-77216000D01*
X183769000Y-71120000D02*
X174498000Y-71120000D01*
X171958000Y-73660000D02*
X169037000Y-73660000D01*
X185039000Y-69850000D02*
X183769000Y-71120000D01*
X187960000Y-69850000D02*
X185039000Y-69850000D01*
%TO.N,Net-(U10-Pad12)*%
X158623000Y-100330000D02*
X160020000Y-100330000D01*
X157988000Y-109982000D02*
X157988000Y-100965000D01*
X157988000Y-100965000D02*
X158623000Y-100330000D01*
X158496000Y-110490000D02*
X157988000Y-109982000D01*
X160020000Y-110490000D02*
X158496000Y-110490000D01*
%TO.N,/HSync/Q0*%
X120030990Y-76184010D02*
X121285000Y-74930000D01*
X114315990Y-76184010D02*
X120030990Y-76184010D01*
X121285000Y-74930000D02*
X124460000Y-74930000D01*
X97790000Y-95250000D02*
X99695000Y-95250000D01*
X105410000Y-89535000D02*
X105410000Y-85090000D01*
X99695000Y-95250000D02*
X105410000Y-89535000D01*
X105410000Y-85090000D02*
X114315990Y-76184010D01*
%TO.N,/HSync/Q8*%
X124460000Y-107950000D02*
X134620000Y-107950000D01*
X150622000Y-92329000D02*
X155956000Y-92329000D01*
X148209000Y-94742000D02*
X150622000Y-92329000D01*
X148209000Y-97028000D02*
X148209000Y-94742000D01*
X138430000Y-102235000D02*
X139065000Y-101600000D01*
X138430000Y-106553000D02*
X138430000Y-102235000D01*
X137033000Y-107950000D02*
X138430000Y-106553000D01*
X143637000Y-101600000D02*
X148209000Y-97028000D01*
X139065000Y-101600000D02*
X143637000Y-101600000D01*
X134620000Y-107950000D02*
X137033000Y-107950000D01*
%TO.N,VSYNC*%
X203200000Y-100203000D02*
X203200000Y-102743000D01*
X213729000Y-122694000D02*
X212748000Y-122694000D01*
X214503000Y-121920000D02*
X213729000Y-122694000D01*
X214503000Y-115443000D02*
X214503000Y-121920000D01*
X212344000Y-113284000D02*
X214503000Y-115443000D01*
X208534000Y-113284000D02*
X212344000Y-113284000D01*
X206629000Y-111379000D02*
X208534000Y-113284000D01*
X203200000Y-102743000D02*
X205359000Y-102743000D01*
X206629000Y-104013000D02*
X206629000Y-111379000D01*
X205359000Y-102743000D02*
X206629000Y-104013000D01*
%TO.N,/VSync/VBLANK*%
X195580000Y-97663000D02*
X195580000Y-100203000D01*
%TO.N,/VSync/Q9*%
X173355000Y-140335000D02*
X170180000Y-140335000D01*
X183149990Y-139080990D02*
X174609010Y-139080990D01*
X184404000Y-140335000D02*
X183149990Y-139080990D01*
X196977000Y-138176000D02*
X192532000Y-138176000D01*
X192532000Y-138176000D02*
X190373000Y-140335000D01*
X199136000Y-140335000D02*
X196977000Y-138176000D01*
X174609010Y-139080990D02*
X173355000Y-140335000D01*
X190373000Y-140335000D02*
X184404000Y-140335000D01*
X201930000Y-140335000D02*
X199136000Y-140335000D01*
%TO.N,/VSync/Q4*%
X182753000Y-88011000D02*
X182753000Y-77216000D01*
X180467000Y-74930000D02*
X177800000Y-74930000D01*
X186309000Y-91567000D02*
X182753000Y-88011000D01*
X189360010Y-91570010D02*
X189357000Y-91567000D01*
X189357000Y-91567000D02*
X186309000Y-91567000D01*
X190754000Y-101473000D02*
X190754000Y-92456000D01*
X182753000Y-77216000D02*
X180467000Y-74930000D01*
X189868010Y-91570010D02*
X189360010Y-91570010D01*
X190754000Y-92456000D02*
X189868010Y-91570010D01*
X189357000Y-102870000D02*
X190754000Y-101473000D01*
X185420000Y-102870000D02*
X189357000Y-102870000D01*
X182102010Y-144160990D02*
X180848000Y-145415000D01*
X193040000Y-145415000D02*
X191785990Y-144160990D01*
X207010000Y-145415000D02*
X205755990Y-144160990D01*
X199247010Y-144160990D02*
X197993000Y-145415000D01*
X205755990Y-144160990D02*
X199247010Y-144160990D01*
X180848000Y-145415000D02*
X177800000Y-145415000D01*
X197993000Y-145415000D02*
X193040000Y-145415000D01*
X191785990Y-144160990D02*
X182102010Y-144160990D01*
X209169000Y-145415000D02*
X207010000Y-145415000D01*
%TO.N,/VSync/Q5*%
X138303000Y-157664685D02*
X138303000Y-155321000D01*
X139261315Y-158623000D02*
X138303000Y-157664685D01*
X201549000Y-158623000D02*
X139261315Y-158623000D01*
X203962000Y-156210000D02*
X201549000Y-158623000D01*
X203962000Y-153670000D02*
X203962000Y-156210000D01*
X203327000Y-153035000D02*
X203962000Y-153670000D01*
X201930000Y-153035000D02*
X203327000Y-153035000D01*
%TO.N,/VSync/Q7*%
X181737000Y-84201000D02*
X181737000Y-107061000D01*
X182626000Y-107950000D02*
X185420000Y-107950000D01*
X181737000Y-107061000D02*
X182626000Y-107950000D01*
X180086000Y-82550000D02*
X181737000Y-84201000D01*
X177800000Y-82550000D02*
X180086000Y-82550000D01*
%TO.N,/VSync/Q6*%
X175387000Y-83312000D02*
X175387000Y-80518000D01*
X175895000Y-80010000D02*
X177800000Y-80010000D01*
X175895000Y-83820000D02*
X175387000Y-83312000D01*
X179197000Y-83820000D02*
X175895000Y-83820000D01*
X180467000Y-85090000D02*
X179197000Y-83820000D01*
X175387000Y-80518000D02*
X175895000Y-80010000D01*
X180467000Y-111252000D02*
X180467000Y-85090000D01*
X182245000Y-113030000D02*
X180467000Y-111252000D01*
X185420000Y-113030000D02*
X182245000Y-113030000D01*
X165354000Y-146685000D02*
X164084000Y-147955000D01*
X172466000Y-146685000D02*
X165354000Y-146685000D01*
X209042000Y-147955000D02*
X206756000Y-147955000D01*
X182245000Y-147955000D02*
X173736000Y-147955000D01*
X190388990Y-146700990D02*
X183499010Y-146700990D01*
X205501990Y-146700990D02*
X199501010Y-146700990D01*
X173736000Y-147955000D02*
X172466000Y-146685000D01*
X191643000Y-147955000D02*
X190388990Y-146700990D01*
X199501010Y-146700990D02*
X198247000Y-147955000D01*
X198247000Y-147955000D02*
X191643000Y-147955000D01*
X164084000Y-147955000D02*
X160020000Y-147955000D01*
X183499010Y-146700990D02*
X182245000Y-147955000D01*
X206756000Y-147955000D02*
X205501990Y-146700990D01*
%TO.N,/VSync/Q3*%
X139700000Y-142875000D02*
X142240000Y-142875000D01*
X137795000Y-144780000D02*
X139700000Y-142875000D01*
X135890000Y-154305000D02*
X137795000Y-152400000D01*
X137795000Y-152400000D02*
X137795000Y-144780000D01*
X113474500Y-154305000D02*
X135890000Y-154305000D01*
X112204500Y-153035000D02*
X113474500Y-154305000D01*
X108458000Y-153035000D02*
X112204500Y-153035000D01*
X144526000Y-142875000D02*
X142240000Y-142875000D01*
X145288000Y-143637000D02*
X144526000Y-142875000D01*
X158496000Y-149225000D02*
X157226000Y-150495000D01*
X165608000Y-150495000D02*
X164338000Y-149225000D01*
X145288000Y-148463000D02*
X145288000Y-143637000D01*
X164338000Y-149225000D02*
X158496000Y-149225000D01*
X172466000Y-150495000D02*
X165608000Y-150495000D01*
X173720010Y-149240990D02*
X172466000Y-150495000D01*
X157226000Y-150495000D02*
X147320000Y-150495000D01*
X147320000Y-150495000D02*
X145288000Y-148463000D01*
X182133990Y-149240990D02*
X173720010Y-149240990D01*
X183388000Y-150495000D02*
X182133990Y-149240990D01*
X187325000Y-150495000D02*
X183388000Y-150495000D01*
%TO.N,/VSync/Q8*%
X165608000Y-116967000D02*
X165608000Y-99441000D01*
X167386000Y-97663000D02*
X170180000Y-97663000D01*
X165608000Y-99441000D02*
X167386000Y-97663000D01*
X161925000Y-120650000D02*
X165608000Y-116967000D01*
X160020000Y-120650000D02*
X161925000Y-120650000D01*
%TO.N,Net-(U14-Pad12)*%
X150241000Y-142875000D02*
X152400000Y-142875000D01*
X148971000Y-141605000D02*
X150241000Y-142875000D01*
X124460000Y-145415000D02*
X128905000Y-145415000D01*
X128905000Y-145415000D02*
X130175000Y-144145000D01*
X135890000Y-144145000D02*
X138430000Y-141605000D01*
X130175000Y-144145000D02*
X135890000Y-144145000D01*
X138430000Y-141605000D02*
X148971000Y-141605000D01*
X155448000Y-136525000D02*
X154305000Y-137668000D01*
X204089000Y-138557000D02*
X202057000Y-136525000D01*
X201930000Y-142875000D02*
X203327000Y-142875000D01*
X204089000Y-142113000D02*
X204089000Y-138557000D01*
X202057000Y-136525000D02*
X155448000Y-136525000D01*
X203327000Y-142875000D02*
X204089000Y-142113000D01*
%TO.N,Net-(U14-Pad10)*%
X153670000Y-144145000D02*
X152400000Y-145415000D01*
X199390000Y-145415000D02*
X198135990Y-146669010D01*
X198135990Y-146669010D02*
X192389010Y-146669010D01*
X173101000Y-145415000D02*
X165290500Y-145415000D01*
X174355010Y-146669010D02*
X173101000Y-145415000D01*
X164020500Y-144145000D02*
X153670000Y-144145000D01*
X165290500Y-145415000D02*
X164020500Y-144145000D01*
X181752990Y-146669010D02*
X174355010Y-146669010D01*
X183007000Y-145415000D02*
X181752990Y-146669010D01*
X191135000Y-145415000D02*
X183007000Y-145415000D01*
X192389010Y-146669010D02*
X191135000Y-145415000D01*
X201930000Y-145415000D02*
X199390000Y-145415000D01*
%TO.N,/VSync/Q0*%
X120505010Y-144145000D02*
X121775010Y-142875000D01*
X121775010Y-142875000D02*
X124460000Y-142875000D01*
X112395000Y-144145000D02*
X120505010Y-144145000D01*
X111125000Y-145415000D02*
X112395000Y-144145000D01*
X108458000Y-145415000D02*
X111125000Y-145415000D01*
X128905000Y-142875000D02*
X124460000Y-142875000D01*
X130175000Y-141605000D02*
X128905000Y-142875000D01*
X135890000Y-141605000D02*
X130175000Y-141605000D01*
X174863010Y-141620990D02*
X173609000Y-142875000D01*
X165480295Y-139065000D02*
X138430000Y-139065000D01*
X166878000Y-140462705D02*
X165480295Y-139065000D01*
X166878000Y-142113000D02*
X166878000Y-140462705D01*
X187579000Y-142875000D02*
X180975000Y-142875000D01*
X167640000Y-142875000D02*
X166878000Y-142113000D01*
X173609000Y-142875000D02*
X167640000Y-142875000D01*
X179720990Y-141620990D02*
X174863010Y-141620990D01*
X138430000Y-139065000D02*
X135890000Y-141605000D01*
X180975000Y-142875000D02*
X179720990Y-141620990D01*
%TO.N,/VSync/Q1*%
X121920000Y-147955000D02*
X124460000Y-147955000D01*
X120650000Y-149225000D02*
X121920000Y-147955000D01*
X114808000Y-149225000D02*
X120650000Y-149225000D01*
X112649000Y-149225000D02*
X114935000Y-149225000D01*
X111379000Y-147955000D02*
X112649000Y-149225000D01*
X108458000Y-147955000D02*
X111379000Y-147955000D01*
%TO.N,/VSync/Q2*%
X111760000Y-150495000D02*
X108458000Y-150495000D01*
X113030000Y-151765000D02*
X111760000Y-150495000D01*
X120332500Y-151765000D02*
X113030000Y-151765000D01*
X121602500Y-153035000D02*
X120332500Y-151765000D01*
X124460000Y-153035000D02*
X121602500Y-153035000D01*
X199517000Y-147955000D02*
X201930000Y-147955000D01*
X189611000Y-147955000D02*
X190865010Y-149209010D01*
X198262990Y-149209010D02*
X199517000Y-147955000D01*
X190865010Y-149209010D02*
X198262990Y-149209010D01*
X187579000Y-147955000D02*
X189611000Y-147955000D01*
%TO.N,Net-(U1-Pad15)*%
X140335000Y-85090000D02*
X142240000Y-85090000D01*
X138430000Y-83185000D02*
X140335000Y-85090000D01*
X135890000Y-76200000D02*
X138430000Y-78740000D01*
X129540000Y-76200000D02*
X135890000Y-76200000D01*
X125730000Y-72390000D02*
X129540000Y-76200000D01*
X138430000Y-78740000D02*
X138430000Y-83185000D01*
X124460000Y-72390000D02*
X125730000Y-72390000D01*
%TO.N,Net-(U4-Pad6)*%
X137160000Y-135255000D02*
X139065000Y-133350000D01*
X128143000Y-135255000D02*
X137160000Y-135255000D01*
X126238000Y-133350000D02*
X128143000Y-135255000D01*
X139065000Y-133350000D02*
X142240000Y-133350000D01*
X124460000Y-133350000D02*
X126238000Y-133350000D01*
X121285000Y-133350000D02*
X124460000Y-133350000D01*
X119380000Y-135255000D02*
X121285000Y-133350000D01*
X109855000Y-135255000D02*
X119380000Y-135255000D01*
X107950000Y-133350000D02*
X109855000Y-135255000D01*
X105410000Y-133350000D02*
X107950000Y-133350000D01*
%TO.N,Net-(U4-Pad12)*%
X127000000Y-130810000D02*
X124460000Y-130810000D01*
X128254010Y-129555990D02*
X127000000Y-130810000D01*
X137683990Y-129555990D02*
X128254010Y-129555990D01*
X138938000Y-130810000D02*
X137683990Y-129555990D01*
X142240000Y-130810000D02*
X138938000Y-130810000D01*
%TO.N,Net-(U4-Pad4)*%
X139700000Y-100330000D02*
X142240000Y-100330000D01*
X115570000Y-99060000D02*
X138430000Y-99060000D01*
X138430000Y-99060000D02*
X139700000Y-100330000D01*
X113030000Y-101600000D02*
X115570000Y-99060000D01*
X100965000Y-102870000D02*
X102235000Y-101600000D01*
X102235000Y-101600000D02*
X113030000Y-101600000D01*
X97790000Y-102870000D02*
X100965000Y-102870000D01*
%TO.N,Net-(U4-Pad2)*%
X110490000Y-128270000D02*
X116840000Y-128270000D01*
X110490000Y-128270000D02*
X113030000Y-128270000D01*
X109235990Y-129524010D02*
X110490000Y-128270000D01*
X101584010Y-129524010D02*
X109235990Y-129524010D01*
X100330000Y-128270000D02*
X101584010Y-129524010D01*
X97790000Y-128270000D02*
X100330000Y-128270000D01*
X128079500Y-128270000D02*
X134620000Y-128270000D01*
X126825490Y-129524010D02*
X128079500Y-128270000D01*
X121269010Y-129524010D02*
X126825490Y-129524010D01*
X120015000Y-128270000D02*
X121269010Y-129524010D01*
X116840000Y-128270000D02*
X120015000Y-128270000D01*
%TO.N,Net-(U4-Pad8)*%
X109220000Y-125730000D02*
X105410000Y-125730000D01*
X110474010Y-126984010D02*
X109220000Y-125730000D01*
X113014010Y-126984010D02*
X110474010Y-126984010D01*
X120665990Y-126984010D02*
X110474010Y-126984010D01*
X121920000Y-125730000D02*
X120665990Y-126984010D01*
X124460000Y-125730000D02*
X121920000Y-125730000D01*
%TO.N,Net-(U5-Pad12)*%
X127000000Y-100330000D02*
X124460000Y-100330000D01*
X129540000Y-102870000D02*
X127000000Y-100330000D01*
X134620000Y-102870000D02*
X129540000Y-102870000D01*
%TO.N,Net-(U5-Pad10)*%
X134620000Y-105410000D02*
X124460000Y-105410000D01*
%TO.N,Net-(U10-Pad5)*%
X102927020Y-116147980D02*
X100965000Y-118110000D01*
X119027597Y-116147980D02*
X102927020Y-116147980D01*
X100965000Y-118110000D02*
X97790000Y-118110000D01*
X144780000Y-113665000D02*
X121510577Y-113665000D01*
X121510577Y-113665000D02*
X119027597Y-116147980D01*
X152400000Y-105410000D02*
X150114000Y-105410000D01*
X147193000Y-108331000D02*
X147193000Y-111252000D01*
X147193000Y-111252000D02*
X144780000Y-113665000D01*
X150114000Y-105410000D02*
X147193000Y-108331000D01*
%TO.N,Net-(U10-Pad9)*%
X156082990Y-110109010D02*
X156082990Y-107950000D01*
X122555000Y-114935000D02*
X146050000Y-114935000D01*
X116840000Y-118110000D02*
X119380000Y-118110000D01*
X146050000Y-114935000D02*
X148717000Y-112268000D01*
X119380000Y-118110000D02*
X122555000Y-114935000D01*
X153924000Y-112268000D02*
X156082990Y-110109010D01*
X148717000Y-112268000D02*
X153924000Y-112268000D01*
%TO.N,Net-(U10-Pad13)*%
X134620000Y-117056000D02*
X134620000Y-118110000D01*
X147320000Y-116205000D02*
X135471000Y-116205000D01*
X149987000Y-113538000D02*
X147320000Y-116205000D01*
X160020000Y-97790000D02*
X158242000Y-97790000D01*
X158242000Y-97790000D02*
X157099000Y-98933000D01*
X157099000Y-111946962D02*
X155507962Y-113538000D01*
X135471000Y-116205000D02*
X134620000Y-117056000D01*
X157099000Y-98933000D02*
X157099000Y-111946962D01*
X155507962Y-113538000D02*
X149987000Y-113538000D01*
%TO.N,Net-(U11-Pad15)*%
X176276000Y-85090000D02*
X177800000Y-85090000D01*
X175387000Y-85979000D02*
X176276000Y-85090000D01*
X144653000Y-136652000D02*
X146050000Y-135255000D01*
X177038000Y-91313000D02*
X175387000Y-89662000D01*
X175387000Y-89662000D02*
X175387000Y-85979000D01*
X177038000Y-128016000D02*
X177038000Y-91313000D01*
X146050000Y-135255000D02*
X169799000Y-135255000D01*
X169799000Y-135255000D02*
X177038000Y-128016000D01*
X114173000Y-139065000D02*
X116586000Y-136652000D01*
X114173000Y-142113000D02*
X114173000Y-139065000D01*
X116586000Y-136652000D02*
X144653000Y-136652000D01*
X113411000Y-142875000D02*
X114173000Y-142113000D01*
X108458000Y-142875000D02*
X113411000Y-142875000D01*
%TO.N,Net-(U11-Pad1)*%
X202946000Y-159258000D02*
X206629000Y-155575000D01*
X114300000Y-159258000D02*
X202946000Y-159258000D01*
X106680000Y-156845000D02*
X111887000Y-156845000D01*
X104394000Y-154559000D02*
X106680000Y-156845000D01*
X103251000Y-140335000D02*
X104394000Y-141478000D01*
X111887000Y-156845000D02*
X114300000Y-159258000D01*
X104394000Y-141478000D02*
X104394000Y-154559000D01*
X206629000Y-155575000D02*
X209423000Y-155575000D01*
X100838000Y-140335000D02*
X103251000Y-140335000D01*
X215011000Y-152273000D02*
X211709000Y-155575000D01*
X215011000Y-115062000D02*
X215011000Y-152273000D01*
X212598000Y-112649000D02*
X215011000Y-115062000D01*
X207518000Y-111379000D02*
X208788000Y-112649000D01*
X211709000Y-155575000D02*
X209550000Y-155575000D01*
X208788000Y-112649000D02*
X212598000Y-112649000D01*
X207518000Y-95758000D02*
X207518000Y-111379000D01*
X205613000Y-93853000D02*
X207518000Y-95758000D01*
X200025000Y-93853000D02*
X205613000Y-93853000D01*
X198755000Y-92583000D02*
X200025000Y-93853000D01*
X195580000Y-92583000D02*
X198755000Y-92583000D01*
%TO.N,Net-(U12-Pad15)*%
X175895000Y-127762000D02*
X175895000Y-91888036D01*
X160020000Y-130810000D02*
X172847000Y-130810000D01*
X176346000Y-72390000D02*
X177800000Y-72390000D01*
X173990000Y-74746000D02*
X176346000Y-72390000D01*
X173990000Y-89983036D02*
X173990000Y-74746000D01*
X172847000Y-130810000D02*
X175895000Y-127762000D01*
X175895000Y-91888036D02*
X173990000Y-89983036D01*
%TO.N,Net-(U15-Pad12)*%
X140786000Y-145415000D02*
X142240000Y-145415000D01*
X139792001Y-146408999D02*
X140786000Y-145415000D01*
X139792001Y-157318001D02*
X139792001Y-146408999D01*
X195199000Y-157988000D02*
X140462000Y-157988000D01*
X196850000Y-152273000D02*
X196850000Y-156337000D01*
X198628000Y-150495000D02*
X196850000Y-152273000D01*
X196850000Y-156337000D02*
X195199000Y-157988000D01*
X140462000Y-157988000D02*
X139792001Y-157318001D01*
X201168000Y-150495000D02*
X198628000Y-150495000D01*
%TO.N,Net-(U15-Pad10)*%
X146685000Y-153035000D02*
X144145000Y-150495000D01*
X144145000Y-150495000D02*
X142240000Y-150495000D01*
X152400000Y-153035000D02*
X146685000Y-153035000D01*
X155067000Y-153035000D02*
X152400000Y-153035000D01*
X164147500Y-151765000D02*
X156337000Y-151765000D01*
X172783500Y-153035000D02*
X165417500Y-153035000D01*
X174037510Y-151780990D02*
X172783500Y-153035000D01*
X156337000Y-151765000D02*
X155067000Y-153035000D01*
X184546990Y-151780990D02*
X174037510Y-151780990D01*
X165417500Y-153035000D02*
X164147500Y-151765000D01*
X185801000Y-153035000D02*
X184546990Y-151780990D01*
X187325000Y-153035000D02*
X185801000Y-153035000D01*
%TO.N,Net-(U20-Pad2)*%
X195580000Y-95123000D02*
X194183000Y-95123000D01*
X194183000Y-95123000D02*
X193421000Y-95885000D01*
X193421000Y-95885000D02*
X193421000Y-104775000D01*
X193929000Y-105283000D02*
X195580000Y-105283000D01*
X193421000Y-104775000D02*
X193929000Y-105283000D01*
%TO.N,Net-(U20-Pad12)*%
X201422000Y-97663000D02*
X203200000Y-97663000D01*
X200914000Y-98171000D02*
X201422000Y-97663000D01*
X200914000Y-107124500D02*
X200914000Y-98171000D01*
X201612500Y-107823000D02*
X200914000Y-107124500D01*
X203200000Y-107823000D02*
X201612500Y-107823000D01*
%TO.N,Net-(U22-Pad22)*%
X189484000Y-74930000D02*
X187960000Y-74930000D01*
X191897000Y-77343000D02*
X189484000Y-74930000D01*
X191897000Y-108331000D02*
X191897000Y-77343000D01*
X189738000Y-110490000D02*
X191897000Y-108331000D01*
X185420000Y-110490000D02*
X189738000Y-110490000D01*
%TD*%
M02*
