%TF.GenerationSoftware,KiCad,Pcbnew,(5.1.8-0-10_14)*%
%TF.CreationDate,2020-12-18T11:17:03-08:00*%
%TF.ProjectId,BEN_VGA,42454e5f-5647-4412-9e6b-696361645f70,1.0*%
%TF.SameCoordinates,Original*%
%TF.FileFunction,Soldermask,Top*%
%TF.FilePolarity,Negative*%
%FSLAX46Y46*%
G04 Gerber Fmt 4.6, Leading zero omitted, Abs format (unit mm)*
G04 Created by KiCad (PCBNEW (5.1.8-0-10_14)) date 2020-12-18 11:17:03*
%MOMM*%
%LPD*%
G01*
G04 APERTURE LIST*
%ADD10O,2.400000X1.600000*%
%ADD11R,2.400000X1.600000*%
%ADD12C,2.200000*%
%ADD13C,1.600000*%
%ADD14R,1.600000X1.600000*%
%ADD15O,1.700000X1.700000*%
%ADD16R,1.700000X1.700000*%
%ADD17O,1.400000X1.400000*%
%ADD18C,1.400000*%
%ADD19C,4.000000*%
G04 APERTURE END LIST*
D10*
%TO.C,U20*%
X203200000Y-92583000D03*
X195580000Y-107823000D03*
X203200000Y-95123000D03*
X195580000Y-105283000D03*
X203200000Y-97663000D03*
X195580000Y-102743000D03*
X203200000Y-100203000D03*
X195580000Y-100203000D03*
X203200000Y-102743000D03*
X195580000Y-97663000D03*
X203200000Y-105283000D03*
X195580000Y-95123000D03*
X203200000Y-107823000D03*
D11*
X195580000Y-92583000D03*
%TD*%
D12*
%TO.C,H4*%
X213487000Y-157734000D03*
%TD*%
%TO.C,H3*%
X213487000Y-69215000D03*
%TD*%
%TO.C,H2*%
X96520000Y-157734000D03*
%TD*%
%TO.C,H1*%
X96901000Y-69342000D03*
%TD*%
D13*
%TO.C,C22*%
X188976000Y-95250000D03*
X188976000Y-97750000D03*
%TD*%
D10*
%TO.C,U12*%
X177800000Y-69850000D03*
X170180000Y-87630000D03*
X177800000Y-72390000D03*
X170180000Y-85090000D03*
X177800000Y-74930000D03*
X170180000Y-82550000D03*
X177800000Y-77470000D03*
X170180000Y-80010000D03*
X177800000Y-80010000D03*
X170180000Y-77470000D03*
X177800000Y-82550000D03*
X170180000Y-74930000D03*
X177800000Y-85090000D03*
X170180000Y-72390000D03*
X177800000Y-87630000D03*
D11*
X170180000Y-69850000D03*
%TD*%
D10*
%TO.C,U10*%
X160020000Y-95250000D03*
X152400000Y-110490000D03*
X160020000Y-97790000D03*
X152400000Y-107950000D03*
X160020000Y-100330000D03*
X152400000Y-105410000D03*
X160020000Y-102870000D03*
X152400000Y-102870000D03*
X160020000Y-105410000D03*
X152400000Y-100330000D03*
X160020000Y-107950000D03*
X152400000Y-97790000D03*
X160020000Y-110490000D03*
D11*
X152400000Y-95250000D03*
%TD*%
D10*
%TO.C,U23*%
X195580000Y-69850000D03*
X187960000Y-85090000D03*
X195580000Y-72390000D03*
X187960000Y-82550000D03*
X195580000Y-74930000D03*
X187960000Y-80010000D03*
X195580000Y-77470000D03*
X187960000Y-77470000D03*
X195580000Y-80010000D03*
X187960000Y-74930000D03*
X195580000Y-82550000D03*
X187960000Y-72390000D03*
X195580000Y-85090000D03*
D11*
X187960000Y-69850000D03*
%TD*%
D10*
%TO.C,U19*%
X209423000Y-140335000D03*
X201803000Y-155575000D03*
X209423000Y-142875000D03*
X201803000Y-153035000D03*
X209423000Y-145415000D03*
X201803000Y-150495000D03*
X209423000Y-147955000D03*
X201803000Y-147955000D03*
X209423000Y-150495000D03*
X201803000Y-145415000D03*
X209423000Y-153035000D03*
X201803000Y-142875000D03*
X209423000Y-155575000D03*
D11*
X201803000Y-140335000D03*
%TD*%
D10*
%TO.C,U18*%
X194945000Y-140335000D03*
X187325000Y-155575000D03*
X194945000Y-142875000D03*
X187325000Y-153035000D03*
X194945000Y-145415000D03*
X187325000Y-150495000D03*
X194945000Y-147955000D03*
X187325000Y-147955000D03*
X194945000Y-150495000D03*
X187325000Y-145415000D03*
X194945000Y-153035000D03*
X187325000Y-142875000D03*
X194945000Y-155575000D03*
D11*
X187325000Y-140335000D03*
%TD*%
D10*
%TO.C,U17*%
X177800000Y-140335000D03*
X170180000Y-155575000D03*
X177800000Y-142875000D03*
X170180000Y-153035000D03*
X177800000Y-145415000D03*
X170180000Y-150495000D03*
X177800000Y-147955000D03*
X170180000Y-147955000D03*
X177800000Y-150495000D03*
X170180000Y-145415000D03*
X177800000Y-153035000D03*
X170180000Y-142875000D03*
X177800000Y-155575000D03*
D11*
X170180000Y-140335000D03*
%TD*%
D10*
%TO.C,U16*%
X160020000Y-140335000D03*
X152400000Y-155575000D03*
X160020000Y-142875000D03*
X152400000Y-153035000D03*
X160020000Y-145415000D03*
X152400000Y-150495000D03*
X160020000Y-147955000D03*
X152400000Y-147955000D03*
X160020000Y-150495000D03*
X152400000Y-145415000D03*
X160020000Y-153035000D03*
X152400000Y-142875000D03*
X160020000Y-155575000D03*
D11*
X152400000Y-140335000D03*
%TD*%
D10*
%TO.C,U15*%
X142240000Y-140335000D03*
X134620000Y-155575000D03*
X142240000Y-142875000D03*
X134620000Y-153035000D03*
X142240000Y-145415000D03*
X134620000Y-150495000D03*
X142240000Y-147955000D03*
X134620000Y-147955000D03*
X142240000Y-150495000D03*
X134620000Y-145415000D03*
X142240000Y-153035000D03*
X134620000Y-142875000D03*
X142240000Y-155575000D03*
D11*
X134620000Y-140335000D03*
%TD*%
D10*
%TO.C,U14*%
X124460000Y-140335000D03*
X116840000Y-155575000D03*
X124460000Y-142875000D03*
X116840000Y-153035000D03*
X124460000Y-145415000D03*
X116840000Y-150495000D03*
X124460000Y-147955000D03*
X116840000Y-147955000D03*
X124460000Y-150495000D03*
X116840000Y-145415000D03*
X124460000Y-153035000D03*
X116840000Y-142875000D03*
X124460000Y-155575000D03*
D11*
X116840000Y-140335000D03*
%TD*%
D10*
%TO.C,U13*%
X160020000Y-115570000D03*
X152400000Y-133350000D03*
X160020000Y-118110000D03*
X152400000Y-130810000D03*
X160020000Y-120650000D03*
X152400000Y-128270000D03*
X160020000Y-123190000D03*
X152400000Y-125730000D03*
X160020000Y-125730000D03*
X152400000Y-123190000D03*
X160020000Y-128270000D03*
X152400000Y-120650000D03*
X160020000Y-130810000D03*
X152400000Y-118110000D03*
X160020000Y-133350000D03*
D11*
X152400000Y-115570000D03*
%TD*%
D10*
%TO.C,U11*%
X108458000Y-140335000D03*
X100838000Y-158115000D03*
X108458000Y-142875000D03*
X100838000Y-155575000D03*
X108458000Y-145415000D03*
X100838000Y-153035000D03*
X108458000Y-147955000D03*
X100838000Y-150495000D03*
X108458000Y-150495000D03*
X100838000Y-147955000D03*
X108458000Y-153035000D03*
X100838000Y-145415000D03*
X108458000Y-155575000D03*
X100838000Y-142875000D03*
X108458000Y-158115000D03*
D11*
X100838000Y-140335000D03*
%TD*%
D13*
%TO.C,X1*%
X110490000Y-72390000D03*
X102870000Y-72390000D03*
X102870000Y-87630000D03*
D14*
X110490000Y-87630000D03*
%TD*%
D10*
%TO.C,U9*%
X142240000Y-95250000D03*
X134620000Y-110490000D03*
X142240000Y-97790000D03*
X134620000Y-107950000D03*
X142240000Y-100330000D03*
X134620000Y-105410000D03*
X142240000Y-102870000D03*
X134620000Y-102870000D03*
X142240000Y-105410000D03*
X134620000Y-100330000D03*
X142240000Y-107950000D03*
X134620000Y-97790000D03*
X142240000Y-110490000D03*
D11*
X134620000Y-95250000D03*
%TD*%
D10*
%TO.C,U8*%
X134620000Y-133350000D03*
X142240000Y-118110000D03*
X134620000Y-130810000D03*
X142240000Y-120650000D03*
X134620000Y-128270000D03*
X142240000Y-123190000D03*
X134620000Y-125730000D03*
X142240000Y-125730000D03*
X134620000Y-123190000D03*
X142240000Y-128270000D03*
X134620000Y-120650000D03*
X142240000Y-130810000D03*
X134620000Y-118110000D03*
D11*
X142240000Y-133350000D03*
%TD*%
D10*
%TO.C,U7*%
X116840000Y-133350000D03*
X124460000Y-118110000D03*
X116840000Y-130810000D03*
X124460000Y-120650000D03*
X116840000Y-128270000D03*
X124460000Y-123190000D03*
X116840000Y-125730000D03*
X124460000Y-125730000D03*
X116840000Y-123190000D03*
X124460000Y-128270000D03*
X116840000Y-120650000D03*
X124460000Y-130810000D03*
X116840000Y-118110000D03*
D11*
X124460000Y-133350000D03*
%TD*%
D10*
%TO.C,U6*%
X97790000Y-133350000D03*
X105410000Y-118110000D03*
X97790000Y-130810000D03*
X105410000Y-120650000D03*
X97790000Y-128270000D03*
X105410000Y-123190000D03*
X97790000Y-125730000D03*
X105410000Y-125730000D03*
X97790000Y-123190000D03*
X105410000Y-128270000D03*
X97790000Y-120650000D03*
X105410000Y-130810000D03*
X97790000Y-118110000D03*
D11*
X105410000Y-133350000D03*
%TD*%
D10*
%TO.C,U3*%
X160020000Y-69850000D03*
X152400000Y-87630000D03*
X160020000Y-72390000D03*
X152400000Y-85090000D03*
X160020000Y-74930000D03*
X152400000Y-82550000D03*
X160020000Y-77470000D03*
X152400000Y-80010000D03*
X160020000Y-80010000D03*
X152400000Y-77470000D03*
X160020000Y-82550000D03*
X152400000Y-74930000D03*
X160020000Y-85090000D03*
X152400000Y-72390000D03*
X160020000Y-87630000D03*
D11*
X152400000Y-69850000D03*
%TD*%
D10*
%TO.C,U2*%
X142240000Y-69850000D03*
X134620000Y-87630000D03*
X142240000Y-72390000D03*
X134620000Y-85090000D03*
X142240000Y-74930000D03*
X134620000Y-82550000D03*
X142240000Y-77470000D03*
X134620000Y-80010000D03*
X142240000Y-80010000D03*
X134620000Y-77470000D03*
X142240000Y-82550000D03*
X134620000Y-74930000D03*
X142240000Y-85090000D03*
X134620000Y-72390000D03*
X142240000Y-87630000D03*
D11*
X134620000Y-69850000D03*
%TD*%
D10*
%TO.C,U1*%
X124460000Y-69850000D03*
X116840000Y-87630000D03*
X124460000Y-72390000D03*
X116840000Y-85090000D03*
X124460000Y-74930000D03*
X116840000Y-82550000D03*
X124460000Y-77470000D03*
X116840000Y-80010000D03*
X124460000Y-80010000D03*
X116840000Y-77470000D03*
X124460000Y-82550000D03*
X116840000Y-74930000D03*
X124460000Y-85090000D03*
X116840000Y-72390000D03*
X124460000Y-87630000D03*
D11*
X116840000Y-69850000D03*
%TD*%
D10*
%TO.C,U5*%
X124460000Y-95250000D03*
X116840000Y-110490000D03*
X124460000Y-97790000D03*
X116840000Y-107950000D03*
X124460000Y-100330000D03*
X116840000Y-105410000D03*
X124460000Y-102870000D03*
X116840000Y-102870000D03*
X124460000Y-105410000D03*
X116840000Y-100330000D03*
X124460000Y-107950000D03*
X116840000Y-97790000D03*
X124460000Y-110490000D03*
D11*
X116840000Y-95250000D03*
%TD*%
D10*
%TO.C,U4*%
X105410000Y-95250000D03*
X97790000Y-110490000D03*
X105410000Y-97790000D03*
X97790000Y-107950000D03*
X105410000Y-100330000D03*
X97790000Y-105410000D03*
X105410000Y-102870000D03*
X97790000Y-102870000D03*
X105410000Y-105410000D03*
X97790000Y-100330000D03*
X105410000Y-107950000D03*
X97790000Y-97790000D03*
X105410000Y-110490000D03*
D11*
X97790000Y-95250000D03*
%TD*%
D10*
%TO.C,U22*%
X185420000Y-95250000D03*
X170180000Y-128270000D03*
X185420000Y-97790000D03*
X170180000Y-125730000D03*
X185420000Y-100330000D03*
X170180000Y-123190000D03*
X185420000Y-102870000D03*
X170180000Y-120650000D03*
X185420000Y-105410000D03*
X170180000Y-118110000D03*
X185420000Y-107950000D03*
X170180000Y-115570000D03*
X185420000Y-110490000D03*
X170180000Y-113030000D03*
X185420000Y-113030000D03*
X170180000Y-110490000D03*
X185420000Y-115570000D03*
X170180000Y-107950000D03*
X185420000Y-118110000D03*
X170180000Y-105410000D03*
X185420000Y-120650000D03*
X170180000Y-102870000D03*
X185420000Y-123190000D03*
X170180000Y-100330000D03*
X185420000Y-125730000D03*
X170180000Y-97790000D03*
X185420000Y-128270000D03*
D11*
X170180000Y-95250000D03*
%TD*%
D15*
%TO.C,J2*%
X205232000Y-69850000D03*
D16*
X207772000Y-69850000D03*
%TD*%
D13*
%TO.C,C21*%
X199517000Y-69850000D03*
X199517000Y-72350000D03*
%TD*%
%TO.C,C20*%
X203200000Y-89027000D03*
X203200000Y-86527000D03*
%TD*%
%TO.C,C19*%
X198374000Y-155575000D03*
X198374000Y-153075000D03*
%TD*%
%TO.C,C18*%
X183769000Y-155575000D03*
X183769000Y-153075000D03*
%TD*%
%TO.C,C17*%
X181356000Y-140335000D03*
X181356000Y-137835000D03*
%TD*%
%TO.C,C16*%
X163830000Y-140335000D03*
X163830000Y-137835000D03*
%TD*%
%TO.C,C15*%
X146050000Y-140335000D03*
X146050000Y-137835000D03*
%TD*%
%TO.C,C14*%
X128270000Y-140335000D03*
X128270000Y-137835000D03*
%TD*%
%TO.C,C13*%
X163703000Y-115570000D03*
X163703000Y-113070000D03*
%TD*%
%TO.C,C12*%
X181356000Y-69850000D03*
X181356000Y-72350000D03*
%TD*%
%TO.C,C11*%
X112014000Y-140335000D03*
X112014000Y-137835000D03*
%TD*%
%TO.C,C10*%
X163957000Y-95250000D03*
X163957000Y-92750000D03*
%TD*%
%TO.C,C9*%
X146050000Y-95250000D03*
X146050000Y-92750000D03*
%TD*%
%TO.C,C8*%
X130810000Y-133350000D03*
X128310000Y-133350000D03*
%TD*%
%TO.C,C7*%
X113030000Y-133350000D03*
X110530000Y-133350000D03*
%TD*%
%TO.C,C6*%
X97790000Y-136525000D03*
X97790000Y-139025000D03*
%TD*%
%TO.C,C5*%
X128270000Y-95250000D03*
X128270000Y-92750000D03*
%TD*%
%TO.C,C4*%
X109220000Y-95250000D03*
X109220000Y-92750000D03*
%TD*%
%TO.C,C3*%
X163703000Y-69850000D03*
X163703000Y-72350000D03*
%TD*%
%TO.C,C2*%
X146050000Y-69850000D03*
X146050000Y-72350000D03*
%TD*%
%TO.C,C1*%
X128270000Y-69850000D03*
X128270000Y-72350000D03*
%TD*%
D17*
%TO.C,R6*%
X200787000Y-128016000D03*
D18*
X193167000Y-128016000D03*
%TD*%
D17*
%TO.C,R5*%
X200787000Y-124968000D03*
D18*
X193167000Y-124968000D03*
%TD*%
D17*
%TO.C,R4*%
X200787000Y-118872000D03*
D18*
X193167000Y-118872000D03*
%TD*%
D17*
%TO.C,R3*%
X200787000Y-121666000D03*
D18*
X193167000Y-121666000D03*
%TD*%
D17*
%TO.C,R2*%
X200787000Y-115570000D03*
D18*
X193167000Y-115570000D03*
%TD*%
D17*
%TO.C,R1*%
X200787000Y-112649000D03*
D18*
X193167000Y-112649000D03*
%TD*%
D19*
%TO.C,J1*%
X210838000Y-107639000D03*
X210838000Y-132639000D03*
D13*
X212748000Y-124984000D03*
X212748000Y-122694000D03*
X212748000Y-120404000D03*
X212748000Y-118114000D03*
X212748000Y-115824000D03*
X210768000Y-123839000D03*
X210768000Y-121549000D03*
X210768000Y-119259000D03*
X210768000Y-116969000D03*
X210768000Y-114679000D03*
X208788000Y-124984000D03*
X208788000Y-122694000D03*
X208788000Y-120404000D03*
X208788000Y-118114000D03*
D14*
X208788000Y-115824000D03*
%TD*%
M02*
