%TF.GenerationSoftware,KiCad,Pcbnew,(5.1.8-0-10_14)*%
%TF.CreationDate,2020-12-16T20:41:27-08:00*%
%TF.ProjectId,BEN_VGA,42454e5f-5647-4412-9e6b-696361645f70,1.0*%
%TF.SameCoordinates,Original*%
%TF.FileFunction,Copper,L2,Inr*%
%TF.FilePolarity,Positive*%
%FSLAX46Y46*%
G04 Gerber Fmt 4.6, Leading zero omitted, Abs format (unit mm)*
G04 Created by KiCad (PCBNEW (5.1.8-0-10_14)) date 2020-12-16 20:41:27*
%MOMM*%
%LPD*%
G01*
G04 APERTURE LIST*
%TA.AperFunction,ComponentPad*%
%ADD10C,1.600000*%
%TD*%
%TA.AperFunction,ComponentPad*%
%ADD11O,2.400000X1.600000*%
%TD*%
%TA.AperFunction,ComponentPad*%
%ADD12R,2.400000X1.600000*%
%TD*%
%TA.AperFunction,ComponentPad*%
%ADD13R,1.600000X1.600000*%
%TD*%
%TA.AperFunction,ComponentPad*%
%ADD14O,1.700000X1.700000*%
%TD*%
%TA.AperFunction,ComponentPad*%
%ADD15R,1.700000X1.700000*%
%TD*%
%TA.AperFunction,ComponentPad*%
%ADD16O,1.400000X1.400000*%
%TD*%
%TA.AperFunction,ComponentPad*%
%ADD17C,1.400000*%
%TD*%
%TA.AperFunction,ComponentPad*%
%ADD18C,4.000000*%
%TD*%
%TA.AperFunction,ViaPad*%
%ADD19C,0.800000*%
%TD*%
%TA.AperFunction,Conductor*%
%ADD20C,0.254000*%
%TD*%
G04 APERTURE END LIST*
D10*
%TO.N,+5V*%
%TO.C,C22*%
X204470000Y-93980000D03*
%TO.N,GND*%
X204470000Y-96480000D03*
%TD*%
D11*
%TO.N,+5V*%
%TO.C,U12*%
X200660000Y-69850000D03*
%TO.N,GND*%
X193040000Y-87630000D03*
%TO.N,Net-(U12-Pad15)*%
X200660000Y-72390000D03*
%TO.N,+5V*%
X193040000Y-85090000D03*
%TO.N,/VSync/Q4*%
X200660000Y-74930000D03*
%TO.N,N/C*%
X193040000Y-82550000D03*
%TO.N,/VSync/Q5*%
X200660000Y-77470000D03*
%TO.N,N/C*%
X193040000Y-80010000D03*
%TO.N,/VSync/Q6*%
X200660000Y-80010000D03*
%TO.N,N/C*%
X193040000Y-77470000D03*
%TO.N,/VSync/Q7*%
X200660000Y-82550000D03*
%TO.N,N/C*%
X193040000Y-74930000D03*
%TO.N,Net-(U11-Pad15)*%
X200660000Y-85090000D03*
%TO.N,/HSync/264*%
X193040000Y-72390000D03*
%TO.N,+5V*%
X200660000Y-87630000D03*
D12*
%TO.N,Net-(U11-Pad1)*%
X193040000Y-69850000D03*
%TD*%
D11*
%TO.N,+5V*%
%TO.C,U10*%
X165100000Y-95250000D03*
%TO.N,GND*%
X157480000Y-110490000D03*
%TO.N,Net-(U10-Pad13)*%
X165100000Y-97790000D03*
%TO.N,Net-(U10-Pad2)*%
X157480000Y-107950000D03*
%TO.N,Net-(U10-Pad12)*%
X165100000Y-100330000D03*
%TO.N,Net-(U10-Pad5)*%
X157480000Y-105410000D03*
%TO.N,HSYNC*%
X165100000Y-102870000D03*
%TO.N,/HSync/HBLANK*%
X157480000Y-102870000D03*
%TO.N,HSYNC*%
X165100000Y-105410000D03*
%TO.N,/HSync/HBLANK*%
X157480000Y-100330000D03*
%TO.N,Net-(U10-Pad9)*%
X165100000Y-107950000D03*
%TO.N,Net-(U10-Pad2)*%
X157480000Y-97790000D03*
%TO.N,Net-(U10-Pad12)*%
X165100000Y-110490000D03*
D12*
%TO.N,/HSync/264*%
X157480000Y-95250000D03*
%TD*%
D11*
%TO.N,+5V*%
%TO.C,U23*%
X220980000Y-69850000D03*
%TO.N,GND*%
X213360000Y-85090000D03*
%TO.N,N/C*%
X220980000Y-72390000D03*
X213360000Y-82550000D03*
X220980000Y-74930000D03*
X213360000Y-80010000D03*
X220980000Y-77470000D03*
X213360000Y-77470000D03*
X220980000Y-80010000D03*
%TO.N,Net-(U22-Pad22)*%
X213360000Y-74930000D03*
%TO.N,N/C*%
X220980000Y-82550000D03*
%TO.N,/VSync/VBLANK*%
X213360000Y-72390000D03*
%TO.N,N/C*%
X220980000Y-85090000D03*
D12*
%TO.N,/HSync/HBLANK*%
X213360000Y-69850000D03*
%TD*%
D11*
%TO.N,GND*%
%TO.C,U19*%
X217170000Y-140335000D03*
%TO.N,+5V*%
X209550000Y-155575000D03*
%TO.N,N/C*%
X217170000Y-142875000D03*
%TO.N,/VSync/Q5*%
X209550000Y-153035000D03*
%TO.N,/VSync/Q4*%
X217170000Y-145415000D03*
%TO.N,Net-(U15-Pad12)*%
X209550000Y-150495000D03*
%TO.N,/VSync/Q6*%
X217170000Y-147955000D03*
%TO.N,/VSync/Q2*%
X209550000Y-147955000D03*
%TO.N,N/C*%
X217170000Y-150495000D03*
%TO.N,Net-(U14-Pad10)*%
X209550000Y-145415000D03*
%TO.N,N/C*%
X217170000Y-153035000D03*
%TO.N,Net-(U14-Pad12)*%
X209550000Y-142875000D03*
%TO.N,Net-(U11-Pad1)*%
X217170000Y-155575000D03*
D12*
%TO.N,/VSync/Q9*%
X209550000Y-140335000D03*
%TD*%
D11*
%TO.N,GND*%
%TO.C,U18*%
X201930000Y-140335000D03*
%TO.N,+5V*%
X194310000Y-155575000D03*
%TO.N,N/C*%
X201930000Y-142875000D03*
%TO.N,Net-(U15-Pad10)*%
X194310000Y-153035000D03*
%TO.N,/VSync/Q4*%
X201930000Y-145415000D03*
%TO.N,/VSync/Q3*%
X194310000Y-150495000D03*
%TO.N,/VSync/Q6*%
X201930000Y-147955000D03*
%TO.N,/VSync/Q2*%
X194310000Y-147955000D03*
%TO.N,N/C*%
X201930000Y-150495000D03*
%TO.N,Net-(U14-Pad10)*%
X194310000Y-145415000D03*
%TO.N,N/C*%
X201930000Y-153035000D03*
%TO.N,/VSync/Q0*%
X194310000Y-142875000D03*
%TO.N,Net-(U18-Pad8)*%
X201930000Y-155575000D03*
D12*
%TO.N,/VSync/Q9*%
X194310000Y-140335000D03*
%TD*%
D11*
%TO.N,+5V*%
%TO.C,U17*%
X181610000Y-140335000D03*
%TO.N,GND*%
X173990000Y-155575000D03*
%TO.N,N/C*%
X181610000Y-142875000D03*
%TO.N,Net-(U15-Pad10)*%
X173990000Y-153035000D03*
%TO.N,/VSync/Q4*%
X181610000Y-145415000D03*
%TO.N,/VSync/Q3*%
X173990000Y-150495000D03*
%TO.N,/VSync/Q6*%
X181610000Y-147955000D03*
%TO.N,Net-(U14-Pad8)*%
X173990000Y-147955000D03*
%TO.N,N/C*%
X181610000Y-150495000D03*
%TO.N,Net-(U14-Pad10)*%
X173990000Y-145415000D03*
%TO.N,N/C*%
X181610000Y-153035000D03*
%TO.N,/VSync/Q0*%
X173990000Y-142875000D03*
%TO.N,Net-(U17-Pad8)*%
X181610000Y-155575000D03*
D12*
%TO.N,/VSync/Q9*%
X173990000Y-140335000D03*
%TD*%
D11*
%TO.N,+5V*%
%TO.C,U16*%
X165100000Y-140335000D03*
%TO.N,GND*%
X157480000Y-155575000D03*
%TO.N,N/C*%
X165100000Y-142875000D03*
%TO.N,Net-(U15-Pad10)*%
X157480000Y-153035000D03*
%TO.N,/VSync/Q4*%
X165100000Y-145415000D03*
%TO.N,/VSync/Q3*%
X157480000Y-150495000D03*
%TO.N,/VSync/Q6*%
X165100000Y-147955000D03*
%TO.N,Net-(U14-Pad8)*%
X157480000Y-147955000D03*
%TO.N,N/C*%
X165100000Y-150495000D03*
%TO.N,Net-(U14-Pad10)*%
X157480000Y-145415000D03*
%TO.N,N/C*%
X165100000Y-153035000D03*
%TO.N,Net-(U14-Pad12)*%
X157480000Y-142875000D03*
%TO.N,Net-(U16-Pad8)*%
X165100000Y-155575000D03*
D12*
%TO.N,/VSync/Q9*%
X157480000Y-140335000D03*
%TD*%
D11*
%TO.N,+5V*%
%TO.C,U15*%
X142240000Y-140335000D03*
%TO.N,GND*%
X134620000Y-155575000D03*
%TO.N,/VSync/Q3*%
X142240000Y-142875000D03*
%TO.N,N/C*%
X134620000Y-153035000D03*
%TO.N,Net-(U15-Pad12)*%
X142240000Y-145415000D03*
%TO.N,N/C*%
X134620000Y-150495000D03*
%TO.N,/VSync/Q5*%
X142240000Y-147955000D03*
%TO.N,N/C*%
X134620000Y-147955000D03*
%TO.N,Net-(U15-Pad10)*%
X142240000Y-150495000D03*
%TO.N,N/C*%
X134620000Y-145415000D03*
X142240000Y-153035000D03*
X134620000Y-142875000D03*
X142240000Y-155575000D03*
D12*
X134620000Y-140335000D03*
%TD*%
D11*
%TO.N,+5V*%
%TO.C,U14*%
X124460000Y-140335000D03*
%TO.N,GND*%
X116840000Y-155575000D03*
%TO.N,/VSync/Q0*%
X124460000Y-142875000D03*
%TO.N,N/C*%
X116840000Y-153035000D03*
%TO.N,Net-(U14-Pad12)*%
X124460000Y-145415000D03*
%TO.N,N/C*%
X116840000Y-150495000D03*
%TO.N,/VSync/Q1*%
X124460000Y-147955000D03*
%TO.N,N/C*%
X116840000Y-147955000D03*
%TO.N,Net-(U14-Pad10)*%
X124460000Y-150495000D03*
%TO.N,N/C*%
X116840000Y-145415000D03*
%TO.N,/VSync/Q2*%
X124460000Y-153035000D03*
%TO.N,N/C*%
X116840000Y-142875000D03*
%TO.N,Net-(U14-Pad8)*%
X124460000Y-155575000D03*
D12*
%TO.N,N/C*%
X116840000Y-140335000D03*
%TD*%
D11*
%TO.N,+5V*%
%TO.C,U13*%
X165100000Y-115570000D03*
%TO.N,GND*%
X157480000Y-133350000D03*
%TO.N,N/C*%
X165100000Y-118110000D03*
%TO.N,+5V*%
X157480000Y-130810000D03*
%TO.N,/VSync/Q8*%
X165100000Y-120650000D03*
%TO.N,N/C*%
X157480000Y-128270000D03*
%TO.N,/VSync/Q9*%
X165100000Y-123190000D03*
%TO.N,N/C*%
X157480000Y-125730000D03*
X165100000Y-125730000D03*
X157480000Y-123190000D03*
X165100000Y-128270000D03*
X157480000Y-120650000D03*
%TO.N,Net-(U12-Pad15)*%
X165100000Y-130810000D03*
%TO.N,/HSync/264*%
X157480000Y-118110000D03*
%TO.N,+5V*%
X165100000Y-133350000D03*
D12*
%TO.N,Net-(U11-Pad1)*%
X157480000Y-115570000D03*
%TD*%
D11*
%TO.N,+5V*%
%TO.C,U11*%
X105410000Y-140335000D03*
%TO.N,GND*%
X97790000Y-158115000D03*
%TO.N,Net-(U11-Pad15)*%
X105410000Y-142875000D03*
%TO.N,+5V*%
X97790000Y-155575000D03*
%TO.N,/VSync/Q0*%
X105410000Y-145415000D03*
%TO.N,N/C*%
X97790000Y-153035000D03*
%TO.N,/VSync/Q1*%
X105410000Y-147955000D03*
%TO.N,N/C*%
X97790000Y-150495000D03*
%TO.N,/VSync/Q2*%
X105410000Y-150495000D03*
%TO.N,N/C*%
X97790000Y-147955000D03*
%TO.N,/VSync/Q3*%
X105410000Y-153035000D03*
%TO.N,N/C*%
X97790000Y-145415000D03*
%TO.N,+5V*%
X105410000Y-155575000D03*
%TO.N,/HSync/264*%
X97790000Y-142875000D03*
%TO.N,+5V*%
X105410000Y-158115000D03*
D12*
%TO.N,Net-(U11-Pad1)*%
X97790000Y-140335000D03*
%TD*%
D10*
%TO.N,GND*%
%TO.C,X1*%
X110490000Y-72390000D03*
%TO.N,/HSync/CLK*%
X102870000Y-72390000D03*
%TO.N,+5V*%
X102870000Y-87630000D03*
D13*
X110490000Y-87630000D03*
%TD*%
D11*
%TO.N,+5V*%
%TO.C,U20*%
X220980000Y-91440000D03*
%TO.N,GND*%
X213360000Y-106680000D03*
%TO.N,Net-(U18-Pad8)*%
X220980000Y-93980000D03*
%TO.N,Net-(U20-Pad2)*%
X213360000Y-104140000D03*
%TO.N,Net-(U20-Pad12)*%
X220980000Y-96520000D03*
%TO.N,Net-(U16-Pad8)*%
X213360000Y-101600000D03*
%TO.N,VSYNC*%
X220980000Y-99060000D03*
%TO.N,/VSync/VBLANK*%
X213360000Y-99060000D03*
%TO.N,VSYNC*%
X220980000Y-101600000D03*
%TO.N,/VSync/VBLANK*%
X213360000Y-96520000D03*
%TO.N,Net-(U17-Pad8)*%
X220980000Y-104140000D03*
%TO.N,Net-(U20-Pad2)*%
X213360000Y-93980000D03*
%TO.N,Net-(U20-Pad12)*%
X220980000Y-106680000D03*
D12*
%TO.N,Net-(U11-Pad1)*%
X213360000Y-91440000D03*
%TD*%
D11*
%TO.N,+5V*%
%TO.C,U9*%
X142240000Y-95250000D03*
%TO.N,GND*%
X134620000Y-110490000D03*
%TO.N,N/C*%
X142240000Y-97790000D03*
%TO.N,/HSync/Q8*%
X134620000Y-107950000D03*
%TO.N,Net-(U4-Pad4)*%
X142240000Y-100330000D03*
%TO.N,Net-(U5-Pad10)*%
X134620000Y-105410000D03*
%TO.N,Net-(U4-Pad6)*%
X142240000Y-102870000D03*
%TO.N,Net-(U5-Pad12)*%
X134620000Y-102870000D03*
%TO.N,N/C*%
X142240000Y-105410000D03*
%TO.N,Net-(U4-Pad8)*%
X134620000Y-100330000D03*
%TO.N,N/C*%
X142240000Y-107950000D03*
%TO.N,Net-(U4-Pad10)*%
X134620000Y-97790000D03*
%TO.N,/HSync/264*%
X142240000Y-110490000D03*
D12*
%TO.N,/HSync/Q3*%
X134620000Y-95250000D03*
%TD*%
D11*
%TO.N,+5V*%
%TO.C,U8*%
X134620000Y-133350000D03*
%TO.N,GND*%
X142240000Y-118110000D03*
%TO.N,N/C*%
X134620000Y-130810000D03*
%TO.N,/HSync/Q7*%
X142240000Y-120650000D03*
%TO.N,Net-(U4-Pad2)*%
X134620000Y-128270000D03*
%TO.N,/HSync/Q6*%
X142240000Y-123190000D03*
%TO.N,/HSync/Q1*%
X134620000Y-125730000D03*
%TO.N,/HSync/Q5*%
X142240000Y-125730000D03*
%TO.N,N/C*%
X134620000Y-123190000D03*
%TO.N,/HSync/Q4*%
X142240000Y-128270000D03*
%TO.N,N/C*%
X134620000Y-120650000D03*
%TO.N,Net-(U4-Pad12)*%
X142240000Y-130810000D03*
%TO.N,Net-(U10-Pad13)*%
X134620000Y-118110000D03*
D12*
%TO.N,Net-(U4-Pad6)*%
X142240000Y-133350000D03*
%TD*%
D11*
%TO.N,+5V*%
%TO.C,U7*%
X116840000Y-133350000D03*
%TO.N,GND*%
X124460000Y-118110000D03*
%TO.N,N/C*%
X116840000Y-130810000D03*
%TO.N,/HSync/Q7*%
X124460000Y-120650000D03*
%TO.N,Net-(U4-Pad2)*%
X116840000Y-128270000D03*
%TO.N,/HSync/Q6*%
X124460000Y-123190000D03*
%TO.N,/HSync/Q1*%
X116840000Y-125730000D03*
%TO.N,Net-(U4-Pad8)*%
X124460000Y-125730000D03*
%TO.N,N/C*%
X116840000Y-123190000D03*
%TO.N,/HSync/Q4*%
X124460000Y-128270000D03*
%TO.N,N/C*%
X116840000Y-120650000D03*
%TO.N,Net-(U4-Pad12)*%
X124460000Y-130810000D03*
%TO.N,Net-(U10-Pad9)*%
X116840000Y-118110000D03*
D12*
%TO.N,Net-(U4-Pad6)*%
X124460000Y-133350000D03*
%TD*%
D11*
%TO.N,+5V*%
%TO.C,U6*%
X97790000Y-133350000D03*
%TO.N,GND*%
X105410000Y-118110000D03*
%TO.N,N/C*%
X97790000Y-130810000D03*
%TO.N,/HSync/Q7*%
X105410000Y-120650000D03*
%TO.N,Net-(U4-Pad2)*%
X97790000Y-128270000D03*
%TO.N,/HSync/Q6*%
X105410000Y-123190000D03*
%TO.N,Net-(U4-Pad4)*%
X97790000Y-125730000D03*
%TO.N,Net-(U4-Pad8)*%
X105410000Y-125730000D03*
%TO.N,N/C*%
X97790000Y-123190000D03*
%TO.N,Net-(U4-Pad10)*%
X105410000Y-128270000D03*
%TO.N,N/C*%
X97790000Y-120650000D03*
%TO.N,/HSync/Q3*%
X105410000Y-130810000D03*
%TO.N,Net-(U10-Pad5)*%
X97790000Y-118110000D03*
D12*
%TO.N,Net-(U4-Pad6)*%
X105410000Y-133350000D03*
%TD*%
D11*
%TO.N,+5V*%
%TO.C,U3*%
X165100000Y-69850000D03*
%TO.N,GND*%
X157480000Y-87630000D03*
%TO.N,N/C*%
X165100000Y-72390000D03*
%TO.N,+5V*%
X157480000Y-85090000D03*
%TO.N,/HSync/Q8*%
X165100000Y-74930000D03*
%TO.N,N/C*%
X157480000Y-82550000D03*
X165100000Y-77470000D03*
X157480000Y-80010000D03*
X165100000Y-80010000D03*
X157480000Y-77470000D03*
X165100000Y-82550000D03*
X157480000Y-74930000D03*
%TO.N,Net-(U2-Pad15)*%
X165100000Y-85090000D03*
%TO.N,/HSync/CLK*%
X157480000Y-72390000D03*
%TO.N,+5V*%
X165100000Y-87630000D03*
D12*
%TO.N,/HSync/264*%
X157480000Y-69850000D03*
%TD*%
D11*
%TO.N,+5V*%
%TO.C,U2*%
X142240000Y-69850000D03*
%TO.N,GND*%
X134620000Y-87630000D03*
%TO.N,Net-(U2-Pad15)*%
X142240000Y-72390000D03*
%TO.N,+5V*%
X134620000Y-85090000D03*
%TO.N,/HSync/Q4*%
X142240000Y-74930000D03*
%TO.N,N/C*%
X134620000Y-82550000D03*
%TO.N,/HSync/Q5*%
X142240000Y-77470000D03*
%TO.N,N/C*%
X134620000Y-80010000D03*
%TO.N,/HSync/Q6*%
X142240000Y-80010000D03*
%TO.N,N/C*%
X134620000Y-77470000D03*
%TO.N,/HSync/Q7*%
X142240000Y-82550000D03*
%TO.N,N/C*%
X134620000Y-74930000D03*
%TO.N,Net-(U1-Pad15)*%
X142240000Y-85090000D03*
%TO.N,/HSync/CLK*%
X134620000Y-72390000D03*
%TO.N,+5V*%
X142240000Y-87630000D03*
D12*
%TO.N,/HSync/264*%
X134620000Y-69850000D03*
%TD*%
D11*
%TO.N,+5V*%
%TO.C,U1*%
X124460000Y-69850000D03*
%TO.N,GND*%
X116840000Y-87630000D03*
%TO.N,Net-(U1-Pad15)*%
X124460000Y-72390000D03*
%TO.N,+5V*%
X116840000Y-85090000D03*
%TO.N,/HSync/Q0*%
X124460000Y-74930000D03*
%TO.N,N/C*%
X116840000Y-82550000D03*
%TO.N,/HSync/Q1*%
X124460000Y-77470000D03*
%TO.N,N/C*%
X116840000Y-80010000D03*
%TO.N,/HSync/Q2*%
X124460000Y-80010000D03*
%TO.N,N/C*%
X116840000Y-77470000D03*
%TO.N,/HSync/Q3*%
X124460000Y-82550000D03*
%TO.N,N/C*%
X116840000Y-74930000D03*
%TO.N,+5V*%
X124460000Y-85090000D03*
%TO.N,/HSync/CLK*%
X116840000Y-72390000D03*
%TO.N,+5V*%
X124460000Y-87630000D03*
D12*
%TO.N,/HSync/264*%
X116840000Y-69850000D03*
%TD*%
D11*
%TO.N,+5V*%
%TO.C,U5*%
X124460000Y-95250000D03*
%TO.N,GND*%
X116840000Y-110490000D03*
%TO.N,/HSync/Q6*%
X124460000Y-97790000D03*
%TO.N,N/C*%
X116840000Y-107950000D03*
%TO.N,Net-(U5-Pad12)*%
X124460000Y-100330000D03*
%TO.N,N/C*%
X116840000Y-105410000D03*
%TO.N,/HSync/Q7*%
X124460000Y-102870000D03*
%TO.N,N/C*%
X116840000Y-102870000D03*
%TO.N,Net-(U5-Pad10)*%
X124460000Y-105410000D03*
%TO.N,N/C*%
X116840000Y-100330000D03*
%TO.N,/HSync/Q8*%
X124460000Y-107950000D03*
%TO.N,N/C*%
X116840000Y-97790000D03*
X124460000Y-110490000D03*
D12*
X116840000Y-95250000D03*
%TD*%
D11*
%TO.N,+5V*%
%TO.C,U4*%
X105410000Y-95250000D03*
%TO.N,GND*%
X97790000Y-110490000D03*
%TO.N,/HSync/Q3*%
X105410000Y-97790000D03*
%TO.N,Net-(U4-Pad6)*%
X97790000Y-107950000D03*
%TO.N,Net-(U4-Pad12)*%
X105410000Y-100330000D03*
%TO.N,/HSync/Q2*%
X97790000Y-105410000D03*
%TO.N,/HSync/Q4*%
X105410000Y-102870000D03*
%TO.N,Net-(U4-Pad4)*%
X97790000Y-102870000D03*
%TO.N,Net-(U4-Pad10)*%
X105410000Y-105410000D03*
%TO.N,/HSync/Q1*%
X97790000Y-100330000D03*
%TO.N,/HSync/Q5*%
X105410000Y-107950000D03*
%TO.N,Net-(U4-Pad2)*%
X97790000Y-97790000D03*
%TO.N,Net-(U4-Pad8)*%
X105410000Y-110490000D03*
D12*
%TO.N,/HSync/Q0*%
X97790000Y-95250000D03*
%TD*%
D11*
%TO.N,+5V*%
%TO.C,U22*%
X200660000Y-93980000D03*
%TO.N,GND*%
X185420000Y-127000000D03*
%TO.N,+5V*%
X200660000Y-96520000D03*
%TO.N,Net-(R4-Pad1)*%
X185420000Y-124460000D03*
%TO.N,/VSync/Q9*%
X200660000Y-99060000D03*
%TO.N,Net-(R5-Pad1)*%
X185420000Y-121920000D03*
%TO.N,/VSync/Q4*%
X200660000Y-101600000D03*
%TO.N,Net-(R6-Pad1)*%
X185420000Y-119380000D03*
%TO.N,/VSync/Q5*%
X200660000Y-104140000D03*
%TO.N,/HSync/Q1*%
X185420000Y-116840000D03*
%TO.N,/VSync/Q7*%
X200660000Y-106680000D03*
%TO.N,/HSync/Q2*%
X185420000Y-114300000D03*
%TO.N,Net-(U22-Pad22)*%
X200660000Y-109220000D03*
%TO.N,/HSync/Q3*%
X185420000Y-111760000D03*
%TO.N,/VSync/Q6*%
X200660000Y-111760000D03*
%TO.N,/HSync/Q4*%
X185420000Y-109220000D03*
%TO.N,GND*%
X200660000Y-114300000D03*
%TO.N,/HSync/Q5*%
X185420000Y-106680000D03*
%TO.N,N/C*%
X200660000Y-116840000D03*
%TO.N,/HSync/Q6*%
X185420000Y-104140000D03*
%TO.N,N/C*%
X200660000Y-119380000D03*
%TO.N,/HSync/Q7*%
X185420000Y-101600000D03*
%TO.N,Net-(R1-Pad1)*%
X200660000Y-121920000D03*
%TO.N,/VSync/Q3*%
X185420000Y-99060000D03*
%TO.N,Net-(R2-Pad1)*%
X200660000Y-124460000D03*
%TO.N,/VSync/Q8*%
X185420000Y-96520000D03*
%TO.N,Net-(R3-Pad1)*%
X200660000Y-127000000D03*
D12*
%TO.N,GND*%
X185420000Y-93980000D03*
%TD*%
D14*
%TO.N,GND*%
%TO.C,J2*%
X225425000Y-85090000D03*
D15*
%TO.N,+5V*%
X225425000Y-82550000D03*
%TD*%
D10*
%TO.N,+5V*%
%TO.C,C21*%
X224790000Y-69850000D03*
%TO.N,GND*%
X227290000Y-69850000D03*
%TD*%
%TO.N,+5V*%
%TO.C,C20*%
X224155000Y-91440000D03*
%TO.N,GND*%
X226655000Y-91440000D03*
%TD*%
%TO.N,+5V*%
%TO.C,C19*%
X205994000Y-155575000D03*
%TO.N,GND*%
X205994000Y-158075000D03*
%TD*%
%TO.N,+5V*%
%TO.C,C18*%
X190500000Y-155575000D03*
%TO.N,GND*%
X190500000Y-158075000D03*
%TD*%
%TO.N,+5V*%
%TO.C,C17*%
X185420000Y-140335000D03*
%TO.N,GND*%
X185420000Y-137835000D03*
%TD*%
%TO.N,+5V*%
%TO.C,C16*%
X168910000Y-140335000D03*
%TO.N,GND*%
X168910000Y-137835000D03*
%TD*%
%TO.N,+5V*%
%TO.C,C15*%
X146050000Y-140335000D03*
%TO.N,GND*%
X148550000Y-140335000D03*
%TD*%
%TO.N,+5V*%
%TO.C,C14*%
X128270000Y-140335000D03*
%TO.N,GND*%
X130770000Y-140335000D03*
%TD*%
%TO.N,+5V*%
%TO.C,C13*%
X170815000Y-115570000D03*
%TO.N,GND*%
X173315000Y-115570000D03*
%TD*%
%TO.N,+5V*%
%TO.C,C12*%
X204470000Y-69850000D03*
%TO.N,GND*%
X206970000Y-69850000D03*
%TD*%
%TO.N,+5V*%
%TO.C,C11*%
X109220000Y-140335000D03*
%TO.N,GND*%
X111720000Y-140335000D03*
%TD*%
%TO.N,+5V*%
%TO.C,C10*%
X171450000Y-95250000D03*
%TO.N,GND*%
X173950000Y-95250000D03*
%TD*%
%TO.N,+5V*%
%TO.C,C9*%
X146050000Y-95250000D03*
%TO.N,GND*%
X146050000Y-92750000D03*
%TD*%
%TO.N,+5V*%
%TO.C,C8*%
X130810000Y-133350000D03*
%TO.N,GND*%
X128310000Y-133350000D03*
%TD*%
%TO.N,+5V*%
%TO.C,C7*%
X113030000Y-133350000D03*
%TO.N,GND*%
X110530000Y-133350000D03*
%TD*%
%TO.N,+5V*%
%TO.C,C6*%
X97790000Y-136525000D03*
%TO.N,GND*%
X100290000Y-136525000D03*
%TD*%
%TO.N,+5V*%
%TO.C,C5*%
X128270000Y-95250000D03*
%TO.N,GND*%
X128270000Y-92750000D03*
%TD*%
%TO.N,+5V*%
%TO.C,C4*%
X109220000Y-95250000D03*
%TO.N,GND*%
X109220000Y-92750000D03*
%TD*%
%TO.N,+5V*%
%TO.C,C3*%
X171450000Y-69850000D03*
%TO.N,GND*%
X173950000Y-69850000D03*
%TD*%
%TO.N,+5V*%
%TO.C,C2*%
X146050000Y-69850000D03*
%TO.N,GND*%
X148550000Y-69850000D03*
%TD*%
%TO.N,+5V*%
%TO.C,C1*%
X128270000Y-69850000D03*
%TO.N,GND*%
X130770000Y-69850000D03*
%TD*%
D16*
%TO.N,Net-(J1-Pad3)*%
%TO.C,R6*%
X214503000Y-128016000D03*
D17*
%TO.N,Net-(R6-Pad1)*%
X206883000Y-128016000D03*
%TD*%
D16*
%TO.N,Net-(J1-Pad3)*%
%TO.C,R5*%
X214503000Y-124968000D03*
D17*
%TO.N,Net-(R5-Pad1)*%
X206883000Y-124968000D03*
%TD*%
D16*
%TO.N,Net-(J1-Pad2)*%
%TO.C,R4*%
X214503000Y-118872000D03*
D17*
%TO.N,Net-(R4-Pad1)*%
X206883000Y-118872000D03*
%TD*%
D16*
%TO.N,Net-(J1-Pad2)*%
%TO.C,R3*%
X214503000Y-121666000D03*
D17*
%TO.N,Net-(R3-Pad1)*%
X206883000Y-121666000D03*
%TD*%
D16*
%TO.N,Net-(J1-Pad1)*%
%TO.C,R2*%
X214503000Y-115570000D03*
D17*
%TO.N,Net-(R2-Pad1)*%
X206883000Y-115570000D03*
%TD*%
D16*
%TO.N,Net-(J1-Pad1)*%
%TO.C,R1*%
X214503000Y-112268000D03*
D17*
%TO.N,Net-(R1-Pad1)*%
X206883000Y-112268000D03*
%TD*%
D18*
%TO.N,N/C*%
%TO.C,J1*%
X224300000Y-121355000D03*
X224300000Y-146355000D03*
D10*
X226210000Y-138700000D03*
%TO.N,VSYNC*%
X226210000Y-136410000D03*
%TO.N,HSYNC*%
X226210000Y-134120000D03*
%TO.N,N/C*%
X226210000Y-131830000D03*
X226210000Y-129540000D03*
%TO.N,GND*%
X224230000Y-137555000D03*
%TO.N,N/C*%
X224230000Y-135265000D03*
%TO.N,GND*%
X224230000Y-132975000D03*
X224230000Y-130685000D03*
X224230000Y-128395000D03*
X222250000Y-138700000D03*
%TO.N,N/C*%
X222250000Y-136410000D03*
%TO.N,Net-(J1-Pad3)*%
X222250000Y-134120000D03*
%TO.N,Net-(J1-Pad2)*%
X222250000Y-131830000D03*
D13*
%TO.N,Net-(J1-Pad1)*%
X222250000Y-129540000D03*
%TD*%
D19*
%TO.N,HSYNC*%
X224790000Y-126365000D03*
%TO.N,/HSync/Q1*%
X182245000Y-116840000D03*
X104775000Y-113665006D03*
%TO.N,/HSync/Q4*%
X108585000Y-110490000D03*
%TO.N,/HSync/Q7*%
X189230000Y-100330000D03*
%TO.N,/HSync/HBLANK*%
X189230000Y-73660000D03*
%TO.N,/HSync/Q8*%
X151130000Y-92710006D03*
%TO.N,/VSync/Q9*%
X176530000Y-125095000D03*
%TO.N,/VSync/Q5*%
X219710000Y-114300000D03*
X138430000Y-158207014D03*
%TO.N,Net-(U14-Pad12)*%
X161925000Y-137795000D03*
%TO.N,Net-(U10-Pad9)*%
X160655000Y-107950000D03*
%TO.N,Net-(U16-Pad8)*%
X217170000Y-108585000D03*
%TD*%
D20*
%TO.N,/HSync/264*%
X152400000Y-118110000D02*
X157480000Y-118110000D01*
X149860000Y-120650000D02*
X152400000Y-118110000D01*
X149860000Y-132080000D02*
X149860000Y-120650000D01*
X146685000Y-135255000D02*
X149860000Y-132080000D01*
X97790000Y-142875000D02*
X100330000Y-142875000D01*
X102870000Y-137795000D02*
X103505000Y-137160000D01*
X137795000Y-137160000D02*
X139700000Y-135255000D01*
X100330000Y-142875000D02*
X102870000Y-140335000D01*
X103505000Y-137160000D02*
X137795000Y-137160000D01*
X139700000Y-135255000D02*
X146685000Y-135255000D01*
X102870000Y-140335000D02*
X102870000Y-137795000D01*
X149860000Y-115570000D02*
X152400000Y-118110000D01*
X149860000Y-99695000D02*
X149860000Y-115570000D01*
X154305000Y-95250000D02*
X149860000Y-99695000D01*
X157480000Y-95250000D02*
X154305000Y-95250000D01*
%TO.N,/HSync/Q1*%
X185420000Y-116840000D02*
X182245000Y-116840000D01*
X104775006Y-113665000D02*
X104775000Y-113665006D01*
X106680000Y-113665000D02*
X104775006Y-113665000D01*
X116840000Y-125730000D02*
X111760000Y-125730000D01*
X109855000Y-116840000D02*
X106680000Y-113665000D01*
X109855000Y-123825000D02*
X109855000Y-116840000D01*
X111760000Y-125730000D02*
X109855000Y-123825000D01*
%TO.N,/HSync/Q2*%
X122555000Y-80010000D02*
X124460000Y-80010000D01*
X120650000Y-81915000D02*
X122555000Y-80010000D01*
X118745000Y-90170000D02*
X120650000Y-88265000D01*
X120650000Y-88265000D02*
X120650000Y-81915000D01*
X105727500Y-90170000D02*
X118745000Y-90170000D01*
X100330000Y-104775000D02*
X100330000Y-95567500D01*
X99695000Y-105410000D02*
X100330000Y-104775000D01*
X100330000Y-95567500D02*
X105727500Y-90170000D01*
X97790000Y-105410000D02*
X99695000Y-105410000D01*
%TO.N,/HSync/Q3*%
X103505000Y-97790000D02*
X105410000Y-97790000D01*
X100965000Y-100330000D02*
X103505000Y-97790000D01*
X100965000Y-128905000D02*
X100965000Y-100330000D01*
X102870000Y-130810000D02*
X100965000Y-128905000D01*
X105410000Y-130810000D02*
X102870000Y-130810000D01*
%TO.N,/HSync/Q4*%
X140970000Y-74930000D02*
X142240000Y-74930000D01*
X128905000Y-80010000D02*
X130175000Y-78740000D01*
X130175000Y-78740000D02*
X137160000Y-78740000D01*
X115570000Y-92710000D02*
X124460000Y-92710000D01*
X137160000Y-78740000D02*
X140970000Y-74930000D01*
X114300000Y-97790000D02*
X114300000Y-93980000D01*
X128905000Y-88265000D02*
X128905000Y-80010000D01*
X124460000Y-92710000D02*
X128905000Y-88265000D01*
X109220000Y-102870000D02*
X114300000Y-97790000D01*
X114300000Y-93980000D02*
X115570000Y-92710000D01*
X105410000Y-102870000D02*
X109220000Y-102870000D01*
X108585000Y-111125000D02*
X108585000Y-110490000D01*
X118110000Y-114300000D02*
X111760000Y-114300000D01*
X120015000Y-116205000D02*
X118110000Y-114300000D01*
X111760000Y-114300000D02*
X108585000Y-111125000D01*
X120015000Y-125095000D02*
X120015000Y-116205000D01*
X123190000Y-128270000D02*
X120015000Y-125095000D01*
X124460000Y-128270000D02*
X123190000Y-128270000D01*
%TO.N,/HSync/Q5*%
X114300000Y-113030000D02*
X109220000Y-107950000D01*
X109220000Y-107950000D02*
X105410000Y-107950000D01*
X139065000Y-113030000D02*
X114300000Y-113030000D01*
X140335000Y-125730000D02*
X142240000Y-125730000D01*
X139065000Y-124460000D02*
X140335000Y-125730000D01*
X139065000Y-113030000D02*
X139065000Y-124460000D01*
X139065000Y-94615000D02*
X139065000Y-113030000D01*
X144780000Y-78105000D02*
X144780000Y-88900000D01*
X144780000Y-88900000D02*
X139065000Y-94615000D01*
X144145000Y-77470000D02*
X144780000Y-78105000D01*
X142240000Y-77470000D02*
X144145000Y-77470000D01*
%TO.N,/HSync/Q6*%
X140970000Y-80010000D02*
X142240000Y-80010000D01*
X136525000Y-89535000D02*
X137795000Y-88265000D01*
X130175000Y-94615000D02*
X135255000Y-89535000D01*
X135255000Y-89535000D02*
X136525000Y-89535000D01*
X130175000Y-96520000D02*
X130175000Y-94615000D01*
X137795000Y-83185000D02*
X140970000Y-80010000D01*
X128905000Y-97790000D02*
X130175000Y-96520000D01*
X137795000Y-88265000D02*
X137795000Y-83185000D01*
X124460000Y-97790000D02*
X128905000Y-97790000D01*
%TO.N,/HSync/Q7*%
X187960000Y-101600000D02*
X189230000Y-100330000D01*
X185420000Y-101600000D02*
X187960000Y-101600000D01*
X126457000Y-102870000D02*
X124460000Y-102870000D01*
X131445000Y-95250000D02*
X131445000Y-97882000D01*
X131445000Y-97882000D02*
X126457000Y-102870000D01*
X135890000Y-90805000D02*
X131445000Y-95250000D01*
X137795000Y-90805000D02*
X135890000Y-90805000D01*
X139065000Y-89535000D02*
X137795000Y-90805000D01*
X139065000Y-83820000D02*
X139065000Y-89535000D01*
X140335000Y-82550000D02*
X139065000Y-83820000D01*
X142240000Y-82550000D02*
X140335000Y-82550000D01*
%TO.N,/HSync/HBLANK*%
X157480000Y-100330000D02*
X157480000Y-102870000D01*
X158750000Y-100330000D02*
X157480000Y-100330000D01*
X163572990Y-94872010D02*
X163195000Y-95250000D01*
X188595000Y-83820000D02*
X181610000Y-90805000D01*
X164322010Y-94122990D02*
X164233178Y-94122990D01*
X163195000Y-95250000D02*
X163195000Y-95885000D01*
X164233178Y-94122990D02*
X163572990Y-94783178D01*
X181610000Y-90805000D02*
X167640000Y-90805000D01*
X163195000Y-95885000D02*
X158750000Y-100330000D01*
X189230000Y-73660000D02*
X188595000Y-74295000D01*
X163572990Y-94783178D02*
X163572990Y-94872010D01*
X167640000Y-90805000D02*
X164322010Y-94122990D01*
X188595000Y-74295000D02*
X188595000Y-83820000D01*
%TO.N,/VSync/VBLANK*%
X210820000Y-73025000D02*
X211455000Y-72390000D01*
X210820000Y-95250000D02*
X210820000Y-73025000D01*
X211455000Y-72390000D02*
X213360000Y-72390000D01*
X212090000Y-96520000D02*
X210820000Y-95250000D01*
X213360000Y-96520000D02*
X212090000Y-96520000D01*
%TO.N,/VSync/Q9*%
X198120000Y-99060000D02*
X200660000Y-99060000D01*
X193040000Y-104140000D02*
X198120000Y-99060000D01*
X193040000Y-120015000D02*
X193040000Y-104140000D01*
X189865000Y-123190000D02*
X193040000Y-120015000D01*
X189865000Y-123190000D02*
X178435000Y-123190000D01*
X178435000Y-123190000D02*
X176530000Y-125095000D01*
X176530000Y-133350000D02*
X176530000Y-132715000D01*
X176530000Y-132715000D02*
X176530000Y-125095000D01*
X176530000Y-139700000D02*
X176530000Y-132715000D01*
X175895000Y-140335000D02*
X176530000Y-139700000D01*
X173990000Y-140335000D02*
X175895000Y-140335000D01*
X170815000Y-141605000D02*
X172085000Y-140335000D01*
X162560000Y-141605000D02*
X170815000Y-141605000D01*
X161290000Y-140335000D02*
X162560000Y-141605000D01*
X172085000Y-140335000D02*
X173990000Y-140335000D01*
X157480000Y-140335000D02*
X161290000Y-140335000D01*
%TO.N,/VSync/Q4*%
X198120000Y-74930000D02*
X200660000Y-74930000D01*
X196850000Y-90170000D02*
X196850000Y-76200000D01*
X198120000Y-91440000D02*
X196850000Y-90170000D01*
X196850000Y-76200000D02*
X198120000Y-74930000D01*
X201930000Y-101600000D02*
X203200000Y-100330000D01*
X203200000Y-100330000D02*
X203200000Y-92440000D01*
X202200000Y-91440000D02*
X198120000Y-91440000D01*
X203200000Y-92440000D02*
X202200000Y-91440000D01*
X200660000Y-101600000D02*
X201930000Y-101600000D01*
X181610000Y-145415000D02*
X184150000Y-145415000D01*
X187960000Y-135255000D02*
X197485000Y-125730000D01*
X187960000Y-141605000D02*
X187960000Y-135255000D01*
X198755000Y-101600000D02*
X200660000Y-101600000D01*
X197485000Y-102870000D02*
X198755000Y-101600000D01*
X184150000Y-145415000D02*
X187960000Y-141605000D01*
X197485000Y-125730000D02*
X197485000Y-102870000D01*
X165100000Y-145415000D02*
X169545000Y-145415000D01*
X169545000Y-145415000D02*
X170815000Y-144145000D01*
X170815000Y-144145000D02*
X178435000Y-144145000D01*
X179705000Y-145415000D02*
X181610000Y-145415000D01*
X178435000Y-144145000D02*
X179705000Y-145415000D01*
%TO.N,/VSync/Q5*%
X199210000Y-77470000D02*
X200660000Y-77470000D01*
X198120000Y-78560000D02*
X199210000Y-77470000D01*
X199390000Y-90170000D02*
X198120000Y-88900000D01*
X198120000Y-88900000D02*
X198120000Y-78560000D01*
X203835000Y-104140000D02*
X205740000Y-102235000D01*
X200660000Y-104140000D02*
X203835000Y-104140000D01*
X204470000Y-90170000D02*
X205740000Y-91440000D01*
X205740000Y-102235000D02*
X205740000Y-91440000D01*
X204470000Y-90170000D02*
X199390000Y-90170000D01*
X212090000Y-153035000D02*
X214630000Y-150495000D01*
X209550000Y-153035000D02*
X212090000Y-153035000D01*
X214630000Y-150495000D02*
X214630000Y-139065000D01*
X219710000Y-133985000D02*
X219710000Y-114300000D01*
X214630000Y-139065000D02*
X219710000Y-133985000D01*
%TO.N,/VSync/Q7*%
X203835000Y-82550000D02*
X207010000Y-85725000D01*
X203835000Y-106680000D02*
X200660000Y-106680000D01*
X207010000Y-103505000D02*
X203835000Y-106680000D01*
X207010000Y-85725000D02*
X207010000Y-103505000D01*
X200660000Y-82550000D02*
X203835000Y-82550000D01*
%TO.N,/VSync/Q6*%
X203200000Y-111760000D02*
X200660000Y-111760000D01*
X208280000Y-106680000D02*
X203200000Y-111760000D01*
X203200000Y-80010000D02*
X208280000Y-85090000D01*
X208280000Y-85090000D02*
X208280000Y-106680000D01*
X200660000Y-80010000D02*
X203200000Y-80010000D01*
X189230000Y-142875000D02*
X184150000Y-147955000D01*
X189230000Y-138430000D02*
X189230000Y-142875000D01*
X184150000Y-147955000D02*
X181610000Y-147955000D01*
X192405000Y-135255000D02*
X189230000Y-138430000D01*
X198120000Y-135255000D02*
X192405000Y-135255000D01*
X204470000Y-128905000D02*
X198120000Y-135255000D01*
X204470000Y-113030000D02*
X204470000Y-128905000D01*
X203200000Y-111760000D02*
X204470000Y-113030000D01*
%TO.N,/VSync/Q3*%
X153035000Y-142875000D02*
X142240000Y-142875000D01*
X154940000Y-140970000D02*
X153035000Y-142875000D01*
X154940000Y-138430000D02*
X154940000Y-140970000D01*
X157279713Y-136090287D02*
X154940000Y-138430000D01*
X170811711Y-136090287D02*
X157279713Y-136090287D01*
X174625000Y-132276998D02*
X170811711Y-136090287D01*
X174625000Y-109855000D02*
X174625000Y-132276998D01*
X182245000Y-102235000D02*
X174625000Y-109855000D01*
X182245000Y-100330000D02*
X182245000Y-102235000D01*
X183515000Y-99060000D02*
X182245000Y-100330000D01*
X185420000Y-99060000D02*
X183515000Y-99060000D01*
%TO.N,Net-(U14-Pad10)*%
X128905000Y-150495000D02*
X132715000Y-146685000D01*
X153670000Y-145415000D02*
X157480000Y-145415000D01*
X152400000Y-146685000D02*
X153670000Y-145415000D01*
X132715000Y-146685000D02*
X152400000Y-146685000D01*
X124460000Y-150495000D02*
X128905000Y-150495000D01*
%TO.N,/VSync/Q2*%
X180975000Y-160020000D02*
X181610000Y-159385000D01*
X124460000Y-160020000D02*
X180975000Y-160020000D01*
X121920000Y-157480000D02*
X124460000Y-160020000D01*
X121920000Y-153670000D02*
X121920000Y-157480000D01*
X122555000Y-153035000D02*
X121920000Y-153670000D01*
X124460000Y-153035000D02*
X122555000Y-153035000D01*
X192405000Y-147955000D02*
X194310000Y-147955000D01*
X191135000Y-149225000D02*
X192405000Y-147955000D01*
X191135000Y-152400000D02*
X191135000Y-149225000D01*
X184150000Y-159385000D02*
X191135000Y-152400000D01*
X181610000Y-159385000D02*
X184150000Y-159385000D01*
%TO.N,Net-(U2-Pad15)*%
X163195000Y-85090000D02*
X165100000Y-85090000D01*
X161925000Y-83820000D02*
X163195000Y-85090000D01*
X142240000Y-72390000D02*
X144780000Y-72390000D01*
X146685000Y-81915000D02*
X148590000Y-83820000D01*
X148590000Y-83820000D02*
X161925000Y-83820000D01*
X146685000Y-74295000D02*
X146685000Y-81915000D01*
X144780000Y-72390000D02*
X146685000Y-74295000D01*
%TO.N,Net-(U4-Pad6)*%
X99695000Y-107950000D02*
X97790000Y-107950000D01*
X100330000Y-129978000D02*
X100330000Y-108585000D01*
X103702000Y-133350000D02*
X100330000Y-129978000D01*
X100330000Y-108585000D02*
X99695000Y-107950000D01*
X105410000Y-133350000D02*
X103702000Y-133350000D01*
X144780000Y-132715000D02*
X144780000Y-103505000D01*
X144145000Y-102870000D02*
X142240000Y-102870000D01*
X144780000Y-103505000D02*
X144145000Y-102870000D01*
X144145000Y-133350000D02*
X144780000Y-132715000D01*
X142240000Y-133350000D02*
X144145000Y-133350000D01*
%TO.N,Net-(U4-Pad4)*%
X95885000Y-102870000D02*
X97790000Y-102870000D01*
X95250000Y-103505000D02*
X95885000Y-102870000D01*
X95250000Y-125095000D02*
X95250000Y-103505000D01*
X95885000Y-125730000D02*
X95250000Y-125095000D01*
X97790000Y-125730000D02*
X95885000Y-125730000D01*
%TO.N,Net-(U4-Pad10)*%
X103505000Y-105410000D02*
X105410000Y-105410000D01*
X102235000Y-106680000D02*
X103505000Y-105410000D01*
X103505000Y-128270000D02*
X102235000Y-127000000D01*
X102235000Y-127000000D02*
X102235000Y-106680000D01*
X105410000Y-128270000D02*
X103505000Y-128270000D01*
X133166000Y-97790000D02*
X134620000Y-97790000D01*
X130810000Y-100146000D02*
X133166000Y-97790000D01*
X111140990Y-106695990D02*
X128889010Y-106695990D01*
X109855000Y-105410000D02*
X111140990Y-106695990D01*
X130810000Y-104775000D02*
X130810000Y-100146000D01*
X128889010Y-106695990D02*
X130810000Y-104775000D01*
X105410000Y-105410000D02*
X109855000Y-105410000D01*
%TO.N,Net-(U4-Pad2)*%
X95885000Y-128270000D02*
X97790000Y-128270000D01*
X94615000Y-127000000D02*
X95885000Y-128270000D01*
X95885000Y-97790000D02*
X94615000Y-99060000D01*
X94615000Y-99060000D02*
X94615000Y-127000000D01*
X97790000Y-97790000D02*
X95885000Y-97790000D01*
%TO.N,Net-(U4-Pad8)*%
X103505000Y-110490000D02*
X105410000Y-110490000D01*
X102870000Y-125095000D02*
X102870000Y-111125000D01*
X102870000Y-111125000D02*
X103505000Y-110490000D01*
X103505000Y-125730000D02*
X102870000Y-125095000D01*
X105410000Y-125730000D02*
X103505000Y-125730000D01*
%TO.N,Net-(U10-Pad9)*%
X165100000Y-107950000D02*
X160655000Y-107950000D01*
%TO.N,Net-(U11-Pad1)*%
X215265000Y-88900000D02*
X215900000Y-88900000D01*
X213360000Y-90805000D02*
X215265000Y-88900000D01*
X213360000Y-91440000D02*
X213360000Y-90805000D01*
X196850000Y-69850000D02*
X193040000Y-69850000D01*
X214630000Y-67945000D02*
X198755000Y-67945000D01*
X215900000Y-69215000D02*
X214630000Y-67945000D01*
X198755000Y-67945000D02*
X196850000Y-69850000D01*
X215900000Y-88900000D02*
X215900000Y-69215000D01*
X228600000Y-151130000D02*
X224155000Y-155575000D01*
X216535000Y-90594016D02*
X218650984Y-92710000D01*
X222250000Y-92710000D02*
X228600000Y-99060000D01*
X218650984Y-92710000D02*
X222250000Y-92710000D01*
X216535000Y-89535000D02*
X216535000Y-90594016D01*
X224155000Y-155575000D02*
X217170000Y-155575000D01*
X228600000Y-99060000D02*
X228600000Y-151130000D01*
X215900000Y-88900000D02*
X216535000Y-89535000D01*
X190500000Y-70485000D02*
X191135000Y-69850000D01*
X190500000Y-83820000D02*
X190500000Y-70485000D01*
X180340000Y-93980000D02*
X190500000Y-83820000D01*
X180340000Y-101008002D02*
X180340000Y-93980000D01*
X157480000Y-115570000D02*
X162560000Y-115570000D01*
X168318002Y-113030000D02*
X180340000Y-101008002D01*
X162560000Y-115570000D02*
X165100000Y-113030000D01*
X191135000Y-69850000D02*
X193040000Y-69850000D01*
X165100000Y-113030000D02*
X168318002Y-113030000D01*
%TO.N,Net-(U14-Pad8)*%
X157480000Y-147955000D02*
X161290000Y-147955000D01*
X170815000Y-147955000D02*
X173990000Y-147955000D01*
X161290000Y-147955000D02*
X162560000Y-149225000D01*
X162560000Y-149225000D02*
X169545000Y-149225000D01*
X169545000Y-149225000D02*
X170815000Y-147955000D01*
X152400000Y-147955000D02*
X157480000Y-147955000D01*
X149225000Y-155575000D02*
X149225000Y-151130000D01*
X149225000Y-151130000D02*
X152400000Y-147955000D01*
X147320000Y-157480000D02*
X149225000Y-155575000D01*
X126365000Y-157480000D02*
X147320000Y-157480000D01*
X124460000Y-155575000D02*
X126365000Y-157480000D01*
%TO.N,Net-(U16-Pad8)*%
X217170000Y-130810000D02*
X217170000Y-108585000D01*
X167640000Y-155575000D02*
X170180000Y-158115000D01*
X170180000Y-158115000D02*
X183515000Y-158115000D01*
X205105000Y-139700000D02*
X207645000Y-137160000D01*
X205105000Y-145415000D02*
X205105000Y-139700000D01*
X210820000Y-137160000D02*
X217170000Y-130810000D01*
X189230000Y-152400000D02*
X189230000Y-148590000D01*
X191135000Y-146685000D02*
X203835000Y-146685000D01*
X203835000Y-146685000D02*
X205105000Y-145415000D01*
X207645000Y-137160000D02*
X210820000Y-137160000D01*
X189230000Y-148590000D02*
X191135000Y-146685000D01*
X165100000Y-155575000D02*
X167640000Y-155575000D01*
X183515000Y-158115000D02*
X189230000Y-152400000D01*
%TO.N,Net-(U17-Pad8)*%
X184150000Y-155575000D02*
X181610000Y-155575000D01*
X187960000Y-151765000D02*
X184150000Y-155575000D01*
X220980000Y-104140000D02*
X217170000Y-104140000D01*
X203200000Y-133985000D02*
X198755000Y-138430000D01*
X198755000Y-138430000D02*
X198755000Y-141605000D01*
X191135000Y-144145000D02*
X187960000Y-147320000D01*
X198755000Y-141605000D02*
X196215000Y-144145000D01*
X211455000Y-133985000D02*
X203200000Y-133985000D01*
X217170000Y-104140000D02*
X215900000Y-105410000D01*
X215900000Y-129540000D02*
X211455000Y-133985000D01*
X187960000Y-147320000D02*
X187960000Y-151765000D01*
X196215000Y-144145000D02*
X191135000Y-144145000D01*
X215900000Y-105410000D02*
X215900000Y-129540000D01*
%TO.N,Net-(U18-Pad8)*%
X222430000Y-93980000D02*
X220980000Y-93980000D01*
X223520000Y-95070000D02*
X222430000Y-93980000D01*
X223520000Y-107512002D02*
X223520000Y-95070000D01*
X218440000Y-132715000D02*
X218440000Y-112592002D01*
X211455000Y-149225000D02*
X213360000Y-147320000D01*
X202565000Y-155575000D02*
X203835000Y-154305000D01*
X213360000Y-147320000D02*
X213360000Y-137795000D01*
X203835000Y-154305000D02*
X203835000Y-152400000D01*
X218440000Y-112592002D02*
X223520000Y-107512002D01*
X213360000Y-137795000D02*
X218440000Y-132715000D01*
X207010000Y-149225000D02*
X211455000Y-149225000D01*
X203835000Y-152400000D02*
X207010000Y-149225000D01*
X201930000Y-155575000D02*
X202565000Y-155575000D01*
%TD*%
M02*
