M48
; DRILL file {KiCad (5.1.8-0-10_14)} date Friday, December 18, 2020 at 02:34:57 PM
; FORMAT={-:-/ absolute / inch / decimal}
; #@! TF.CreationDate,2020-12-18T14:34:57-08:00
; #@! TF.GenerationSoftware,Kicad,Pcbnew,(5.1.8-0-10_14)
; #@! TF.FileFunction,Plated,1,4,PTH
FMAT,2
INCH
T1C0.0157
T2C0.0276
T3C0.0315
T4C0.0394
T5C0.1260
%
G90
G05
T1
X4.125Y-4.475
X4.275Y-4.35
X5.445Y-6.115
X6.075Y-5.42
X6.14Y-3.635
X6.145Y-4.25
X6.465Y-4.995
X6.515Y-3.04
X6.565Y-4.785
X6.88Y-3.635
X8.085Y-4.49
T2
X7.605Y-4.435
X7.905Y-4.435
X7.605Y-4.68
X7.905Y-4.68
X7.605Y-5.04
X7.905Y-5.04
X7.605Y-4.79
X7.905Y-4.79
X7.605Y-4.92
X7.905Y-4.92
X7.605Y-4.55
X7.905Y-4.55
T3
X7.235Y-6.0266
X7.235Y-6.125
X6.45Y-5.4266
X6.45Y-5.525
X6.0Y-3.75
X6.0Y-3.85
X6.0Y-3.95
X6.0Y-4.05
X6.0Y-4.15
X6.0Y-4.25
X6.0Y-4.35
X6.3Y-3.75
X6.3Y-3.85
X6.3Y-3.95
X6.3Y-4.05
X6.3Y-4.15
X6.3Y-4.25
X6.3Y-4.35
X7.44Y-3.75
X7.44Y-3.8484
X7.14Y-5.4266
X7.14Y-5.525
X7.14Y-2.75
X7.14Y-2.8484
X6.0Y-5.525
X6.0Y-5.625
X6.0Y-5.725
X6.0Y-5.825
X6.0Y-5.925
X6.0Y-6.025
X6.0Y-6.125
X6.3Y-5.525
X6.3Y-5.625
X6.3Y-5.725
X6.3Y-5.825
X6.3Y-5.925
X6.3Y-6.025
X6.3Y-6.125
X3.85Y-3.75
X3.85Y-3.85
X3.85Y-3.95
X3.85Y-4.05
X3.85Y-4.15
X3.85Y-4.25
X3.85Y-4.35
X4.15Y-3.75
X4.15Y-3.85
X4.15Y-3.95
X4.15Y-4.05
X4.15Y-4.15
X4.15Y-4.25
X4.15Y-4.35
X6.445Y-2.75
X6.445Y-2.8484
X5.75Y-2.75
X5.75Y-2.8484
X5.05Y-2.75
X5.05Y-2.8484
X3.85Y-5.375
X3.85Y-5.4734
X5.05Y-3.6516
X5.05Y-3.75
X4.6Y-5.525
X4.6Y-5.625
X4.6Y-5.725
X4.6Y-5.825
X4.6Y-5.925
X4.6Y-6.025
X4.6Y-6.125
X4.9Y-5.525
X4.9Y-5.625
X4.9Y-5.725
X4.9Y-5.825
X4.9Y-5.925
X4.9Y-6.025
X4.9Y-6.125
X3.97Y-5.525
X3.97Y-5.625
X3.97Y-5.725
X3.97Y-5.825
X3.97Y-5.925
X3.97Y-6.025
X3.97Y-6.125
X3.97Y-6.225
X4.27Y-5.525
X4.27Y-5.625
X4.27Y-5.725
X4.27Y-5.825
X4.27Y-5.925
X4.27Y-6.025
X4.27Y-6.125
X4.27Y-6.225
X4.6Y-2.75
X4.6Y-2.85
X4.6Y-2.95
X4.6Y-3.05
X4.6Y-3.15
X4.6Y-3.25
X4.6Y-3.35
X4.6Y-3.45
X4.9Y-2.75
X4.9Y-2.85
X4.9Y-2.95
X4.9Y-3.05
X4.9Y-3.15
X4.9Y-3.25
X4.9Y-3.35
X4.9Y-3.45
X5.3Y-5.525
X5.3Y-5.625
X5.3Y-5.725
X5.3Y-5.825
X5.3Y-5.925
X5.3Y-6.025
X5.3Y-6.125
X5.6Y-5.525
X5.6Y-5.625
X5.6Y-5.725
X5.6Y-5.825
X5.6Y-5.925
X5.6Y-6.025
X5.6Y-6.125
X5.15Y-5.1516
X5.15Y-5.25
X6.455Y-3.6516
X6.455Y-3.75
X7.375Y-5.525
X7.375Y-5.625
X7.375Y-5.725
X7.375Y-5.825
X7.375Y-5.925
X7.375Y-6.025
X7.375Y-6.125
X7.675Y-5.525
X7.675Y-5.625
X7.675Y-5.725
X7.675Y-5.825
X7.675Y-5.925
X7.675Y-6.025
X7.675Y-6.125
X6.7Y-3.75
X6.7Y-3.85
X6.7Y-3.95
X6.7Y-4.05
X6.7Y-4.15
X6.7Y-4.25
X6.7Y-4.35
X6.7Y-4.45
X6.7Y-4.55
X6.7Y-4.65
X6.7Y-4.75
X6.7Y-4.85
X6.7Y-4.95
X6.7Y-5.05
X7.3Y-3.75
X7.3Y-3.85
X7.3Y-3.95
X7.3Y-4.05
X7.3Y-4.15
X7.3Y-4.25
X7.3Y-4.35
X7.3Y-4.45
X7.3Y-4.55
X7.3Y-4.65
X7.3Y-4.75
X7.3Y-4.85
X7.3Y-4.95
X7.3Y-5.05
X5.3Y-4.65
X5.3Y-4.75
X5.3Y-4.85
X5.3Y-4.95
X5.3Y-5.05
X5.3Y-5.15
X5.3Y-5.25
X5.6Y-4.65
X5.6Y-4.75
X5.6Y-4.85
X5.6Y-4.95
X5.6Y-5.05
X5.6Y-5.15
X5.6Y-5.25
X6.7Y-5.525
X6.7Y-5.625
X6.7Y-5.725
X6.7Y-5.825
X6.7Y-5.925
X6.7Y-6.025
X6.7Y-6.125
X7.0Y-5.525
X7.0Y-5.625
X7.0Y-5.725
X7.0Y-5.825
X7.0Y-5.925
X7.0Y-6.025
X7.0Y-6.125
X6.7Y-2.75
X6.7Y-2.85
X6.7Y-2.95
X6.7Y-3.05
X6.7Y-3.15
X6.7Y-3.25
X6.7Y-3.35
X6.7Y-3.45
X7.0Y-2.75
X7.0Y-2.85
X7.0Y-2.95
X7.0Y-3.05
X7.0Y-3.15
X7.0Y-3.25
X7.0Y-3.35
X7.0Y-3.45
X3.85Y-4.65
X3.85Y-4.75
X3.85Y-4.85
X3.85Y-4.95
X3.85Y-5.05
X3.85Y-5.15
X3.85Y-5.25
X4.15Y-4.65
X4.15Y-4.75
X4.15Y-4.85
X4.15Y-4.95
X4.15Y-5.05
X4.15Y-5.15
X4.15Y-5.25
X4.6Y-4.65
X4.6Y-4.75
X4.6Y-4.85
X4.6Y-4.95
X4.6Y-5.05
X4.6Y-5.15
X4.6Y-5.25
X4.9Y-4.65
X4.9Y-4.75
X4.9Y-4.85
X4.9Y-4.95
X4.9Y-5.05
X4.9Y-5.15
X4.9Y-5.25
X7.945Y-5.525
X7.945Y-5.625
X7.945Y-5.725
X7.945Y-5.825
X7.945Y-5.925
X7.945Y-6.025
X7.945Y-6.125
X8.245Y-5.525
X8.245Y-5.625
X8.245Y-5.725
X8.245Y-5.825
X8.245Y-5.925
X8.245Y-6.025
X8.245Y-6.125
X8.0Y-3.4066
X8.0Y-3.505
X7.855Y-2.75
X7.855Y-2.8484
X6.0Y-2.75
X6.0Y-2.85
X6.0Y-2.95
X6.0Y-3.05
X6.0Y-3.15
X6.0Y-3.25
X6.0Y-3.35
X6.0Y-3.45
X6.3Y-2.75
X6.3Y-2.85
X6.3Y-2.95
X6.3Y-3.05
X6.3Y-3.15
X6.3Y-3.25
X6.3Y-3.35
X6.3Y-3.45
X4.05Y-2.85
X4.05Y-3.45
X4.35Y-2.85
X4.35Y-3.45
X5.75Y-5.4266
X5.75Y-5.525
X5.3Y-2.75
X5.3Y-2.85
X5.3Y-2.95
X5.3Y-3.05
X5.3Y-3.15
X5.3Y-3.25
X5.3Y-3.35
X5.3Y-3.45
X5.6Y-2.75
X5.6Y-2.85
X5.6Y-2.95
X5.6Y-3.05
X5.6Y-3.15
X5.6Y-3.25
X5.6Y-3.35
X5.6Y-3.45
X5.3Y-3.75
X5.3Y-3.85
X5.3Y-3.95
X5.3Y-4.05
X5.3Y-4.15
X5.3Y-4.25
X5.3Y-4.35
X5.6Y-3.75
X5.6Y-3.85
X5.6Y-3.95
X5.6Y-4.05
X5.6Y-4.15
X5.6Y-4.25
X5.6Y-4.35
X6.445Y-4.4516
X6.445Y-4.55
X4.6Y-3.75
X4.6Y-3.85
X4.6Y-3.95
X4.6Y-4.05
X4.6Y-4.15
X4.6Y-4.25
X4.6Y-4.35
X4.9Y-3.75
X4.9Y-3.85
X4.9Y-3.95
X4.9Y-4.05
X4.9Y-4.15
X4.9Y-4.25
X4.9Y-4.35
X4.3Y-3.6516
X4.3Y-3.75
X5.05Y-5.4266
X5.05Y-5.525
X4.45Y-5.1516
X4.45Y-5.25
X5.75Y-3.6516
X5.75Y-3.75
X6.0Y-4.55
X6.0Y-4.65
X6.0Y-4.75
X6.0Y-4.85
X6.0Y-4.95
X6.0Y-5.05
X6.0Y-5.15
X6.0Y-5.25
X6.3Y-4.55
X6.3Y-4.65
X6.3Y-4.75
X6.3Y-4.85
X6.3Y-4.95
X6.3Y-5.05
X6.3Y-5.15
X6.3Y-5.25
X7.7Y-3.645
X7.7Y-3.745
X7.7Y-3.845
X7.7Y-3.945
X7.7Y-4.045
X7.7Y-4.145
X7.7Y-4.245
X8.0Y-3.645
X8.0Y-3.745
X8.0Y-3.845
X8.0Y-3.945
X8.0Y-4.045
X8.0Y-4.145
X8.0Y-4.245
X4.41Y-5.4266
X4.41Y-5.525
X7.81Y-6.0266
X7.81Y-6.125
X7.4Y-2.75
X7.4Y-2.85
X7.4Y-2.95
X7.4Y-3.05
X7.4Y-3.15
X7.4Y-3.25
X7.4Y-3.35
X7.7Y-2.75
X7.7Y-2.85
X7.7Y-2.95
X7.7Y-3.05
X7.7Y-3.15
X7.7Y-3.25
X7.7Y-3.35
T4
X8.22Y-4.56
X8.22Y-4.6502
X8.22Y-4.7403
X8.22Y-4.8305
X8.22Y-4.9206
X8.298Y-4.5149
X8.298Y-4.6051
X8.298Y-4.6952
X8.298Y-4.7854
X8.298Y-4.8756
X8.3759Y-4.56
X8.3759Y-4.6502
X8.3759Y-4.7403
X8.3759Y-4.8305
X8.3759Y-4.9206
X8.08Y-2.75
X8.18Y-2.75
T5
X8.3007Y-4.2378
X8.3007Y-5.222
T0
M30
